<?xml version="1.0" standalone="no"?>
<!DOCTYPE svg PUBLIC "-//W3C//DTD SVG 20010904//EN"
 "http://www.w3.org/TR/2001/REC-SVG-20010904/DTD/svg10.dtd">
<svg version="1.0" xmlns="http://www.w3.org/2000/svg"
 width="1200.000000pt" height="675.000000pt" viewBox="0 0 1200.000000 675.000000"
 preserveAspectRatio="xMidYMid meet">

<g transform="translate(0.000000,675.000000) scale(0.100000,-0.100000)"
fill="#000000" stroke="none">
<path d="M0 5279 l0 -1471 33 9 c40 10 180 6 229 -8 30 -8 38 -15 38 -33 0
-21 -7 -25 -63 -35 -35 -6 -94 -11 -131 -11 -117 0 -106 61 -106 -571 l0 -551
68 7 c37 3 112 10 167 15 55 6 174 14 265 20 91 6 246 17 345 26 99 9 207 18
240 20 33 1 173 12 310 23 489 40 532 43 690 51 266 14 868 59 1070 80 105 11
267 24 360 30 94 6 181 15 195 20 14 4 81 11 150 15 69 3 154 9 190 13 57 6
65 10 68 30 4 25 15 28 35 8 10 -10 36 -15 81 -15 53 0 68 4 76 18 5 10 7 21
3 24 -3 4 -8 41 -10 84 -3 43 -8 83 -12 88 -16 20 -19 55 -6 55 8 0 11 8 8 20
-4 16 0 20 22 20 18 0 29 -6 32 -19 3 -11 13 -21 24 -24 22 -6 26 -37 4 -37
-11 0 -15 -9 -13 -28 2 -28 28 -42 28 -15 0 8 4 11 10 8 5 -3 9 2 8 12 -3 41
5 276 9 253 3 -14 10 -28 16 -32 6 -3 12 -15 13 -25 12 -91 19 -164 19 -196 0
-30 4 -39 20 -43 12 -3 25 -15 30 -26 6 -12 17 -23 25 -25 10 -3 9 1 -4 11
-14 11 -16 19 -9 28 19 23 30 164 17 225 -9 46 8 58 99 69 61 8 80 7 89 -3 10
-13 -1 -18 -26 -14 -5 1 -6 -5 -2 -14 3 -9 6 -25 6 -35 0 -11 11 -32 25 -47
l24 -28 1 28 c0 16 -4 26 -10 22 -11 -7 -26 22 -16 32 3 3 12 0 21 -7 14 -11
15 -9 11 23 -2 20 -1 39 4 42 12 8 30 -28 30 -60 0 -22 3 -24 18 -16 19 10 28
56 12 66 -17 11 -11 23 13 27 20 3 23 10 28 78 3 41 1 81 -4 87 -5 7 -6 20 -3
29 6 16 8 15 20 -2 8 -10 12 -23 9 -28 -4 -5 -1 -6 5 -2 15 9 16 36 1 36 -6 0
-9 14 -7 33 2 17 8 31 14 30 15 -3 5 108 -12 127 -7 9 -16 36 -19 60 -11 76
-19 78 -25 6 -4 -59 -8 -70 -24 -72 -11 -2 -30 -5 -42 -8 -29 -8 -32 3 -40
134 -5 80 -4 110 4 112 7 0 18 1 25 2 6 1 14 4 17 7 3 3 19 2 37 -3 24 -6 31
-12 26 -25 -4 -11 -3 -14 5 -9 7 4 10 17 6 32 -6 23 -4 24 20 18 24 -6 26 -4
26 25 0 17 5 31 11 31 7 0 9 -10 5 -24 -6 -24 -4 -25 44 -24 35 1 54 6 60 17
8 13 11 14 18 3 5 -8 20 -12 33 -10 20 2 24 9 27 45 3 34 0 42 -17 48 -15 4
-21 15 -21 36 0 19 -5 29 -15 29 -8 0 -15 -4 -15 -10 0 -21 -20 -9 -26 15 -3
14 -11 22 -16 19 -6 -4 -8 -1 -6 7 3 8 11 13 17 12 6 -2 11 2 11 8 0 7 10 9
27 5 17 -5 29 -3 34 6 7 10 9 9 9 -4 0 -10 6 -18 14 -18 7 0 16 -13 20 -30 4
-23 11 -30 30 -30 19 0 23 -4 19 -20 -3 -11 -14 -20 -24 -20 -15 0 -19 -7 -19
-32 0 -53 10 -60 68 -52 47 6 52 9 52 32 0 13 -7 30 -17 37 -15 11 -14 14 5
33 l22 22 21 -21 c15 -15 18 -24 10 -32 -6 -6 -11 -21 -11 -34 0 -20 5 -23 42
-23 67 0 75 14 72 132 -2 89 -1 97 8 58 5 -25 14 -54 20 -66 5 -11 8 -41 6
-65 -3 -43 -2 -44 30 -47 18 -2 40 2 47 8 8 7 19 9 25 5 6 -3 10 3 10 14 0 12
-5 21 -12 21 -9 0 -9 3 0 12 7 7 13 26 13 42 2 31 2 31 12 -6 6 -20 17 -39 26
-41 13 -4 13 -5 -1 -6 -19 -1 -24 -26 -8 -36 6 -4 36 -3 66 1 l56 7 -4 113
c-2 62 -1 111 3 109 3 -3 8 -50 11 -105 3 -56 9 -105 14 -109 14 -14 124 -1
124 15 0 7 -10 15 -22 17 l-23 4 23 8 c18 6 22 15 23 49 2 36 3 34 12 -22 l10
-64 56 7 c31 4 59 9 64 12 4 2 8 52 8 111 l2 107 7 -97 c10 -125 12 -131 45
-118 15 6 30 8 35 5 5 -3 20 -1 34 5 24 9 26 15 26 65 0 70 18 72 22 3 l3 -53
40 2 c22 1 48 3 58 3 9 1 17 4 18 8 3 22 9 152 9 180 -1 21 3 31 10 27 5 -3
10 -24 10 -46 0 -21 3 -39 8 -39 4 0 13 -14 21 -31 11 -25 11 -36 2 -51 -16
-26 -8 -34 43 -41 71 -10 76 -5 69 64 -4 38 -2 59 5 59 15 0 22 -25 22 -77 l0
-46 68 7 c37 3 69 6 71 6 2 0 1 52 -2 116 -4 64 -4 115 -2 112 3 -3 9 -53 14
-112 4 -58 10 -109 13 -111 3 -3 34 -2 69 2 l64 8 1 63 c2 82 10 88 17 11 3
-33 8 -63 11 -66 3 -4 36 -2 73 3 l68 9 -2 75 c-1 54 0 67 6 45 5 -16 9 -51
10 -77 1 -40 4 -48 20 -48 49 0 50 7 20 87 -16 42 -28 78 -26 80 2 2 17 -31
33 -74 26 -70 33 -78 58 -81 15 -2 35 0 44 4 10 4 29 6 44 5 14 -1 100 5 190
13 89 8 204 18 253 21 121 8 145 13 146 33 4 55 17 -88 22 -228 2 -91 3 -147
0 -124 l-4 41 -40 -11 c-32 -8 -42 -8 -48 3 -6 9 -10 9 -12 2 -2 -6 -51 -15
-114 -21 -60 -5 -139 -14 -175 -20 -36 -5 -110 -12 -165 -15 -236 -13 -592
-52 -612 -67 -7 -5 -40 -7 -75 -5 -35 3 -72 1 -83 -3 -18 -8 -18 -9 5 -11 14
-1 36 -1 48 0 16 1 21 -2 17 -10 -4 -6 -1 -15 6 -20 12 -8 11 -12 -4 -23 -16
-12 -21 -30 -26 -84 -1 -8 -8 -11 -18 -8 -15 5 -18 -1 -19 -42 -1 -26 1 -37 3
-24 2 12 9 20 14 17 5 -4 9 1 9 10 0 8 9 23 19 32 11 9 17 23 14 32 -4 14 -3
14 6 1 15 -21 14 -39 -4 -56 -20 -20 -19 -38 1 -30 9 3 20 6 25 6 5 0 9 12 9
26 0 32 27 63 36 41 5 -14 56 -32 82 -28 8 1 20 -3 28 -10 8 -7 27 -9 47 -5
17 3 28 3 22 -2 -5 -4 -16 -17 -23 -30 -11 -20 -10 -23 10 -31 13 -5 21 -12
18 -16 -3 -5 10 -13 29 -20 19 -6 37 -17 39 -23 6 -19 22 -14 22 8 0 11 9 25
20 32 24 15 27 30 4 21 -11 -4 -15 -2 -12 7 7 22 26 23 33 1 3 -12 14 -21 24
-21 14 0 16 7 13 35 -4 34 -4 35 26 29 23 -5 38 -1 58 15 36 28 39 27 51 -16
17 -65 15 -93 -7 -94 -33 -2 -38 -4 -47 -13 -5 -5 2 -7 15 -3 15 3 22 1 19 -6
-2 -6 7 -21 20 -33 26 -24 30 -36 8 -28 -8 4 -15 2 -15 -4 0 -5 6 -12 14 -15
15 -6 31 19 27 43 -2 9 6 5 20 -10 16 -18 20 -20 16 -7 -4 10 -7 30 -7 44 0
16 -7 27 -18 30 -15 4 -19 14 -18 53 1 27 5 52 10 57 5 4 6 3 2 -4 -4 -7 -3
-13 2 -13 5 0 8 -10 7 -22 -2 -20 2 -23 35 -22 34 0 37 -2 27 -17 -8 -13 -7
-21 5 -32 9 -9 18 -13 22 -10 3 4 6 1 6 -5 0 -7 -7 -12 -15 -12 -26 0 -14 -31
18 -43 15 -6 17 1 18 63 2 88 2 89 14 93 5 1 11 -11 12 -28 3 -43 19 -115 27
-123 4 -3 15 -1 25 5 11 7 22 9 26 5 11 -11 29 -9 40 5 8 10 19 5 48 -21 23
-20 33 -36 26 -38 -7 -2 -14 -14 -16 -27 -2 -12 1 -20 6 -16 16 9 32 -32 35
-90 4 -82 16 -79 16 4 0 54 -4 73 -15 77 -17 7 -21 34 -5 34 14 0 0 53 -17 63
-20 12 -16 24 11 29 18 4 28 -1 37 -19 7 -12 22 -23 33 -23 20 -1 20 -1 3 -11
-18 -11 -18 -12 2 -30 27 -25 28 -24 23 14 -5 35 -28 67 -49 67 -7 0 -13 5
-13 10 0 13 37 13 45 0 4 -6 11 -8 16 -5 12 8 30 -40 23 -60 -4 -8 -1 -16 5
-16 6 -1 16 -2 22 -3 9 -1 21 -112 23 -213 1 -18 6 -35 11 -37 15 -5 18 44 4
60 -9 11 -8 14 1 14 17 0 8 162 -8 168 -15 5 -16 32 -2 32 22 0 8 40 -22 64
-21 16 -27 26 -17 26 8 0 19 -4 25 -9 5 -5 17 -11 28 -13 20 -3 19 1 31 -173
3 -49 10 -92 15 -95 5 -3 5 -11 1 -18 -14 -23 -1 -62 20 -62 26 0 34 25 20 58
-9 18 -9 28 -2 30 7 2 6 13 -4 32 -18 34 -20 81 -4 97 12 12 -4 53 -21 53 -6
0 -10 4 -10 9 0 5 13 3 29 -5 25 -12 29 -21 34 -72 7 -66 15 -92 28 -92 12 0
11 60 -6 305 -15 214 -18 302 -11 294 2 -2 7 -53 11 -114 4 -60 9 -126 11
-145 2 -19 5 -66 7 -105 5 -104 29 -329 36 -337 3 -4 12 -4 18 0 9 6 10 40 4
142 -4 74 -7 137 -5 139 10 11 14 -13 20 -110 4 -60 12 -110 19 -119 7 -8 15
-24 18 -35 2 -11 4 6 3 37 -1 39 -5 58 -13 58 -15 0 -17 16 -3 25 13 8 13 69
0 109 -5 17 -13 51 -18 76 l-10 45 -1 -38 c-1 -25 -5 -36 -12 -31 -6 3 -9 17
-6 31 3 17 -1 28 -14 36 -11 7 -19 15 -19 20 0 11 33 5 43 -8 10 -12 4 28 -21
150 -22 101 -22 101 48 106 59 5 64 -5 93 -173 6 -38 15 -68 20 -68 4 0 6 -4
3 -9 -3 -4 0 -36 7 -70 l13 -62 17 58 c10 32 18 76 20 97 2 35 -1 40 -23 46
-20 5 -26 14 -31 45 -8 50 -2 67 25 63 17 -2 21 -10 23 -42 2 -60 17 -62 37
-4 20 55 43 91 33 51 -5 -22 16 -39 34 -27 5 3 21 -4 35 -15 15 -12 36 -21 47
-21 19 0 19 5 13 108 -4 59 -9 138 -12 176 l-6 69 -97 -6 c-53 -4 -118 -10
-144 -13 l-47 -7 0 59 c-1 33 -7 90 -14 127 -12 62 -11 69 4 77 9 5 74 12 144
16 89 5 129 11 133 20 2 7 -3 131 -11 275 -9 144 -14 265 -10 268 3 3 47 6 97
5 54 -1 84 2 72 7 -16 6 -12 8 16 8 l37 1 10 -92 c6 -51 14 -129 17 -173 4
-44 15 -145 25 -225 28 -210 35 -320 21 -320 -6 0 -11 -16 -11 -35 0 -41 -7
-44 -123 -49 -43 -2 -80 -6 -83 -9 -3 -3 -2 -66 2 -141 6 -121 9 -136 25 -136
9 0 20 8 22 18 4 15 5 15 6 -1 1 -12 -8 -21 -21 -25 -21 -5 -21 -6 -2 -13 19
-7 19 -8 -1 -9 l-20 -1 20 -9 c19 -8 19 -9 1 -9 -17 -1 -18 -8 -11 -143 14
-268 16 -281 48 -296 21 -10 32 -11 40 -3 6 6 21 11 34 11 15 0 27 8 33 23 7
17 9 18 9 5 1 -10 8 -18 17 -18 8 0 12 -4 9 -10 -4 -6 5 -10 19 -10 14 0 26 4
26 8 0 5 88 9 195 11 155 1 195 -1 195 -11 0 -7 -9 -19 -20 -25 -15 -10 -19
-23 -18 -55 3 -123 -2 -166 -19 -173 -10 -3 -19 -3 -20 2 -2 4 -137 8 -301 8
-163 0 -321 3 -350 6 -45 4 -52 3 -47 -10 5 -13 4 -14 -6 -3 -15 14 -39 16
-39 3 0 -5 9 -12 19 -16 14 -4 18 -12 14 -23 -4 -11 2 -8 16 8 12 14 20 20 17
14 -3 -7 3 -14 14 -17 13 -3 18 -10 14 -21 -5 -13 1 -16 35 -16 45 0 55 -16
17 -26 -52 -13 -65 -48 -41 -109 6 -16 2 -14 -23 9 -17 16 -30 33 -29 39 3 12
-85 36 -138 38 -22 0 -49 4 -60 9 -18 8 -17 9 7 9 37 1 58 11 58 26 0 8 17 14
45 17 25 2 45 -1 45 -6 0 -5 2 -7 5 -4 11 11 -19 58 -37 58 -10 0 -18 5 -18
10 0 6 -10 10 -23 10 -13 0 -32 7 -43 15 -10 8 -29 15 -40 15 -20 0 -34 17
-34 40 0 5 23 12 50 16 40 5 50 10 50 26 0 25 -30 36 -44 15 -16 -21 -155 -36
-166 -17 -4 7 -15 10 -25 7 -9 -4 -13 -12 -9 -18 3 -6 0 -15 -7 -20 -9 -5 5
-6 35 -2 39 5 48 3 44 -8 -3 -8 2 -19 11 -25 13 -10 11 -15 -17 -39 -18 -15
-32 -35 -32 -45 0 -14 -18 -30 -35 -30 -6 0 -32 45 -39 67 -5 17 -3 22 11 22
10 0 34 4 53 10 34 10 34 10 -10 5 -25 -3 -99 -8 -165 -10 -66 -2 -140 -8
-165 -13 -25 -5 -109 -15 -187 -21 l-141 -13 5 -33 c5 -32 4 -34 -23 -34 -16
-1 -40 -10 -54 -21 l-25 -21 33 -58 c17 -32 32 -61 32 -63 0 -2 -47 -6 -104
-9 -121 -5 -147 -17 -164 -76 -13 -43 -15 -200 -3 -272 6 -42 5 -47 -24 -73
-16 -16 -24 -26 -17 -22 12 6 16 -6 12 -35 -1 -8 13 2 30 23 31 36 96 77 122
77 7 -1 -11 -12 -41 -27 -29 -14 -56 -34 -58 -44 -3 -10 -11 -20 -18 -23 -21
-8 -35 -74 -30 -136 4 -51 4 -52 -5 -15 -5 22 -9 61 -9 87 -1 26 -6 59 -12 75
-6 15 -13 44 -15 63 -3 19 -11 66 -19 103 -8 37 -11 75 -8 84 4 10 2 14 -4 10
-6 -4 -14 5 -18 21 -16 65 -56 74 -235 52 -155 -20 -180 -36 -180 -115 0 -24
-5 -35 -15 -35 -8 0 -15 -4 -15 -10 0 -5 -9 -10 -20 -10 -33 0 -27 67 9 110
64 79 78 127 65 224 -7 49 -5 48 -84 60 -22 4 -30 3 -21 -3 22 -14 7 -36 -25
-36 -22 0 -30 5 -32 19 0 10 -2 20 -4 21 -2 2 -75 -3 -163 -10 -88 -7 -161
-12 -163 -10 -13 13 16 25 58 25 51 0 64 8 54 34 -6 17 -54 23 -54 7 0 -9 -27
-13 -157 -27 -47 -4 -63 -10 -63 -21 0 -13 9 -14 54 -9 34 5 56 3 60 -3 9 -14
-13 -18 -174 -32 -74 -6 -144 -15 -155 -19 -22 -9 131 -3 240 10 39 4 77 4 85
0 8 -5 -30 -12 -90 -16 -58 -5 -94 -10 -80 -12 25 -4 40 -18 40 -39 0 -14 -53
-27 -79 -18 -17 5 -18 10 -11 31 9 22 7 24 -23 23 -17 -1 -24 -3 -14 -6 20 -5
22 -26 5 -40 -15 -11 -88 -5 -88 7 0 5 9 6 21 3 19 -5 20 -4 8 15 -7 11 -17
18 -22 15 -5 -3 -13 1 -18 8 -7 11 -9 11 -9 -3 0 -22 -12 -29 -30 -17 -13 8
-13 10 0 20 12 8 9 9 -12 5 -79 -18 -81 -20 -75 -96 6 -80 26 -119 88 -175 53
-48 78 -125 41 -125 -28 0 -59 34 -66 73 -4 19 -12 39 -19 45 -22 17 -89 21
-194 11 -112 -10 -178 -31 -193 -60 -6 -10 -10 -77 -10 -149 0 -122 -1 -132
-17 -125 -10 5 -32 10 -49 12 l-31 5 -11 99 c-15 127 -31 189 -48 189 -8 0
-11 6 -8 15 4 8 1 22 -6 30 -14 17 -115 19 -210 6 -30 -5 -56 -7 -58 -6 -1 1
6 25 17 52 21 55 19 124 -5 144 -8 6 -27 12 -44 14 -17 1 -33 4 -36 7 -3 3
-22 2 -42 -3 -20 -5 -59 -9 -85 -9 l-48 0 1 -52 c2 -75 2 -78 -15 -78 -12 0
-15 13 -15 59 0 56 -1 59 -27 64 -27 5 -32 3 -89 -26 -31 -16 -32 -16 -47 6
-11 15 -19 18 -24 11 -4 -6 -46 -14 -92 -18 -72 -6 -81 -5 -69 8 9 8 33 13 66
12 34 -1 53 3 57 12 3 7 1 11 -4 7 -5 -3 -11 -1 -13 5 -4 14 -46 21 -53 9 -4
-5 -13 -5 -23 -1 -9 5 -52 7 -94 5 -71 -3 -78 -2 -78 15 0 22 -25 47 -38 38
-5 -3 -15 -19 -22 -36 -10 -25 -18 -30 -46 -30 -19 0 -42 -8 -52 -17 -10 -10
-23 -19 -28 -19 -5 -1 -63 -7 -129 -14 -167 -16 -168 -17 -190 -124 -6 -27 -7
-27 -20 -10 -14 18 -14 18 -15 -3 0 -13 -4 -23 -8 -23 -5 0 -8 25 -7 56 3 76
-10 135 -31 151 -10 7 -32 13 -50 13 -31 0 -33 -3 -42 -47 -7 -30 -7 -52 -1
-59 6 -7 4 -16 -6 -24 -9 -8 -12 -17 -6 -24 9 -12 9 -81 0 -91 -3 -3 -4 -33
-1 -68 3 -34 6 -74 6 -89 1 -14 4 -24 8 -21 5 2 8 -3 8 -11 0 -12 10 -16 38
-16 61 0 68 9 74 92 2 38 2 38 45 38 31 0 46 5 55 19 6 10 18 17 25 14 7 -3
13 -1 13 4 0 5 9 9 21 9 19 0 19 -1 3 -13 -10 -7 -24 -13 -31 -13 -11 0 -16
-14 -12 -36 1 -3 -10 -18 -24 -32 -14 -15 -30 -46 -36 -68 -11 -39 -13 -42
-57 -48 -26 -3 -64 -6 -85 -6 -32 0 -39 3 -39 20 0 18 -7 20 -69 20 -90 0
-121 -12 -121 -45 0 -24 2 -25 64 -25 46 0 65 -4 69 -14 8 -20 -33 -45 -58
-37 -11 4 -27 6 -35 6 -8 -1 -25 -3 -37 -3 -17 -2 -23 -8 -23 -24 0 -21 -14
-27 -150 -67 -83 -24 -151 -42 -153 -40 -1 2 -9 16 -17 32 -7 15 -19 27 -27
27 -7 0 -13 4 -13 8 0 11 -46 32 -70 32 -10 0 -22 6 -26 13 -4 6 -3 8 2 4 4
-4 13 11 19 35 l10 43 63 6 c44 4 67 11 76 24 11 15 22 17 70 12 41 -4 60 -2
70 9 8 8 29 14 46 14 33 0 184 34 229 52 15 5 20 12 14 16 -13 9 -13 43 1 61
8 11 8 15 -2 19 -10 3 -10 7 -1 18 8 10 8 14 0 14 -6 0 -11 7 -11 15 0 8 4 15
9 15 6 0 3 12 -5 28 -12 24 -12 28 1 38 21 15 8 24 -35 24 -33 0 -315 -32
-402 -46 -42 -6 -75 -31 -75 -55 0 -29 -25 -81 -35 -71 -5 5 -18 51 -28 103
-12 55 -26 99 -35 105 -19 14 -101 28 -115 19 -61 -37 -83 -425 -30 -532 l19
-38 -42 -8 c-137 -27 -172 -51 -232 -163 -29 -53 -34 -58 -90 -75 -36 -11 -91
-19 -135 -19 -41 0 -82 -5 -90 -10 -11 -7 -6 -10 20 -10 53 -1 20 -16 -123
-55 -121 -34 -122 -34 -139 -15 -13 16 -29 20 -83 20 -89 0 -105 -10 -105 -64
l0 -43 -128 -37 c-70 -20 -173 -51 -230 -67 l-103 -31 -21 27 c-21 27 -24 27
-105 23 -90 -5 -112 -18 -113 -66 0 -57 -17 -65 -330 -152 -63 -18 -123 -36
-135 -40 -11 -5 -32 -11 -47 -14 l-28 -6 0 -305 c0 -168 1 -305 3 -305 3 0 51
21 562 244 198 87 396 174 440 193 44 19 113 50 153 69 40 19 75 34 77 34 6 0
105 45 232 106 120 57 133 62 133 41 0 -21 -23 -43 -60 -57 -38 -14 -75 -31
-255 -113 -66 -30 -148 -67 -183 -81 -35 -15 -127 -56 -205 -93 -166 -77 -646
-295 -794 -361 l-103 -45 0 -313 0 -314 6000 0 6000 0 0 1723 c0 1327 -3 1726
-12 1735 -9 9 -9 15 0 24 9 9 12 325 12 1360 l0 1349 -52 -7 c-29 -3 -73 -10
-98 -14 -46 -9 -64 -5 -55 10 7 11 77 22 148 24 l52 1 3 273 2 272 -6000 0
-6000 0 0 -1471z m3605 1331 c-3 -5 4 -11 17 -12 13 0 28 -2 33 -3 6 -2 15 -4
20 -5 17 -3 -28 -19 -56 -19 -21 -1 -28 5 -31 24 -4 17 -1 25 9 25 8 0 11 -4
8 -10z m-710 -294 c430 -139 647 -605 475 -1019 -70 -169 -200 -308 -361 -388
-109 -54 -173 -70 -309 -76 -107 -5 -138 -2 -210 16 -265 67 -453 240 -547
504 -37 105 -44 299 -14 417 77 304 299 509 621 574 14 2 79 3 145 1 95 -2
137 -9 200 -29z m3385 -486 l-155 -149 -601 -1 c-623 0 -682 -3 -759 -42 -65
-33 -95 -60 -361 -321 l-131 -128 -219 1 c-120 0 -220 3 -223 6 -3 3 83 92
192 198 108 106 197 200 197 209 0 9 7 17 16 17 9 0 64 46 123 103 166 160
232 204 353 232 99 22 90 22 928 23 l795 1 -155 -149z m310 -245 l-395 -395
-244 2 -243 3 393 393 394 392 245 0 245 0 -395 -395z m1366 355 c114 -58 162
-155 135 -275 -17 -76 -58 -127 -128 -161 l-58 -29 -288 -3 -288 -3 3 -22 3
-22 378 -3 377 -2 0 -115 0 -115 -516 0 -516 0 4 153 c4 169 13 201 80 263 84
80 153 94 458 94 233 0 240 1 240 20 0 20 -7 20 -390 20 l-390 0 0 120 0 121
414 -3 413 -3 69 -35z m1076 7 c64 -32 91 -62 107 -125 24 -87 -10 -177 -81
-217 l-36 -21 39 -22 c65 -38 99 -128 79 -211 -16 -67 -59 -115 -123 -139 -56
-22 -201 -26 -684 -23 l-203 1 0 114 0 114 33 5 c17 3 183 4 367 4 l335 -2 3
23 3 22 -370 0 -371 0 0 115 0 115 370 0 c363 0 370 0 370 20 0 20 -7 20 -370
20 l-370 0 0 120 0 121 423 -3 422 -3 57 -28z m1048 13 c19 -19 20 -33 20
-373 0 -303 -2 -356 -16 -375 -15 -22 -17 -22 -287 -22 -150 0 -277 -4 -284
-8 -9 -6 -7 -29 11 -97 23 -87 63 -265 88 -392 6 -34 9 -65 6 -69 -13 -12 -28
8 -28 36 0 15 -4 30 -10 32 -5 2 -10 18 -12 36 -1 17 -5 32 -9 32 -4 0 -9 12
-11 26 -2 15 -12 32 -23 38 -11 6 -22 12 -24 14 -3 1 -10 35 -17 75 -7 39 -18
96 -23 126 -6 29 -11 73 -12 96 -2 39 -5 44 -32 49 -16 3 -39 6 -50 6 -11 0
-29 7 -39 17 -17 15 -18 40 -18 375 0 345 1 359 20 378 19 19 33 20 375 20
342 0 356 -1 375 -20z m-5971 -139 c26 -14 30 -19 17 -24 -8 -3 -13 -13 -10
-20 3 -9 -6 -19 -24 -26 -25 -10 -34 -9 -65 9 l-36 21 26 30 c30 33 45 35 92
10z m6561 -25 c0 -11 -33 -36 -47 -36 -14 0 -14 3 2 20 16 18 45 28 45 16z
m-416 -165 c-10 -10 -21 -17 -23 -15 -6 6 20 34 32 34 6 0 2 -8 -9 -19z
m-4182 -3 c-6 -7 -66 -69 -132 -138 l-122 -125 -426 -5 c-489 -6 -451 2 -562
-106 l-65 -62 -202 -3 c-111 -2 -205 0 -208 2 -3 3 80 89 183 191 213 211 248
234 370 247 42 5 324 9 626 10 438 1 546 -2 538 -11z m513 -293 c31 -30 33
-82 4 -119 -16 -20 -29 -26 -60 -26 -53 0 -89 35 -89 85 0 25 8 44 25 60 16
17 35 25 60 25 25 0 44 -8 60 -25z m-6121 -16 c3 -2 1 -11 -4 -18 -7 -12 -16
-12 -54 -1 -26 7 -49 10 -53 6 -3 -3 1 -6 9 -6 25 0 65 -37 53 -49 -11 -11
-81 11 -147 45 -41 21 -35 30 18 25 25 -2 50 1 55 6 9 9 113 2 123 -8z m4266
-207 l35 -15 -35 -9 c-19 -6 -40 -14 -47 -20 -8 -6 -22 -4 -43 7 -27 14 -29
17 -15 31 8 9 15 20 15 25 0 11 39 3 90 -19z m3447 -58 c-2 -2 -53 -6 -113 -9
-152 -6 -222 -16 -289 -40 -16 -6 -15 -3 5 14 14 11 36 21 50 22 14 1 36 3 50
5 14 2 81 6 150 10 69 4 127 8 129 10 5 5 23 -7 18 -12z m3213 2 c0 -8 -71
-48 -76 -43 -3 3 11 15 33 26 42 22 43 23 43 17z m-6533 -48 c21 -17 4 -28
-46 -28 -58 0 -69 9 -39 32 24 18 60 17 85 -4z m-7 -68 c0 -14 -29 -27 -78
-35 l-44 -7 23 26 c17 20 32 26 61 26 21 0 38 -4 38 -10z m3188 0 c-15 -4 -69
-11 -120 -15 -51 -4 -100 -11 -109 -15 -8 -5 -22 -4 -30 1 -11 7 -11 9 4 9 9
0 17 6 18 13 0 8 2 8 5 1 3 -7 13 -10 22 -8 18 5 182 21 217 22 13 0 11 -2 -7
-8z m95 3 c-7 -2 -21 -2 -30 0 -10 3 -4 5 12 5 17 0 24 -2 18 -5z m125 0 c-10
-2 -28 -2 -40 0 -13 2 -5 4 17 4 22 1 32 -1 23 -4z m-527 -49 c-17 -7 -31 -19
-31 -26 0 -10 -2 -10 -9 1 -5 7 -14 11 -20 7 -6 -4 -9 -2 -6 6 8 19 46 34 74
29 22 -4 22 -4 -8 -17z m264 -71 c-3 -24 -9 -43 -11 -40 -3 3 -2 29 2 58 4 30
9 48 12 41 2 -7 1 -34 -3 -59z m-3308 20 c-3 -10 -5 -4 -5 12 0 17 2 24 5 18
2 -7 2 -21 0 -30z m-359 -28 c-3 -3 -9 2 -12 12 -6 14 -5 15 5 6 7 -7 10 -15
7 -18z m3757 -25 c0 -27 -4 -50 -9 -50 -6 0 -20 -9 -32 -21 -12 -12 -27 -18
-33 -14 -14 8 -14 52 -1 60 6 4 8 11 5 16 -3 5 1 6 10 3 12 -5 13 -10 6 -17
-6 -6 -11 -20 -11 -31 0 -18 2 -18 13 -6 8 8 22 36 31 63 10 26 18 47 19 47 1
0 2 -22 2 -50z m-139 -33 l7 -52 13 35 c17 47 17 27 0 -35 -13 -49 -13 -49
-20 -20 -4 17 -12 43 -17 59 -12 38 -12 79 1 71 5 -3 13 -29 16 -58z m161 23
c-1 -22 -4 -34 -8 -27 -7 11 -1 67 7 67 1 0 2 -18 1 -40z m33 30 c0 -5 -5 -10
-11 -10 -5 0 -7 5 -4 10 3 6 8 10 11 10 2 0 4 -4 4 -10z m-3523 -340 c-2 -8
-9 24 -16 73 -7 48 -14 87 -16 87 -2 0 -2 -89 0 -197 3 -186 3 -190 -5 -63 -4
74 -8 205 -8 290 l0 155 24 -165 c13 -91 23 -172 21 -180z m113 336 c0 -3 -4
-8 -10 -11 -5 -3 -10 -1 -10 4 0 6 5 11 10 11 6 0 10 -2 10 -4z m40 -113 c0
-8 5 -11 10 -8 6 4 10 -6 11 -22 0 -24 1 -25 8 -8 6 15 10 3 16 -45 5 -42 4
-65 -3 -68 -7 -2 -7 -14 -2 -32 13 -44 1 -69 -41 -90 l-37 -20 -6 28 c-12 54
-16 261 -6 267 5 3 10 14 10 23 0 15 -2 15 -10 2 -5 -8 -10 -13 -11 -10 0 3
-2 14 -5 25 -2 11 -1 27 2 35 5 12 8 11 14 -5 8 -18 9 -18 10 5 0 21 4 18 20
-19 11 -24 20 -50 20 -58z m-213 -184 c6 -270 1 -336 -12 -149 -4 58 -8 106
-9 108 -2 1 -9 -53 -17 -120 -13 -121 -14 -122 -20 -63 -4 45 -6 51 -9 25 l-3
-35 -7 35 c-6 29 -8 31 -9 10 -2 -14 -5 -20 -7 -13 -3 6 2 76 10 154 9 78 16
145 16 150 0 5 5 9 11 9 7 0 9 -11 6 -30 -4 -16 -2 -32 3 -35 6 -4 10 14 11
42 2 101 14 191 25 181 2 -3 7 -124 11 -269z m50 234 c-3 -10 -5 -4 -5 12 0
17 2 24 5 18 2 -7 2 -21 0 -30z m-4092 -34 c-4 -5 -14 -5 -26 1 -11 6 -17 15
-14 21 4 5 14 5 26 -1 11 -6 17 -15 14 -21z m4142 -26 c-3 -10 -5 -4 -5 12 0
17 2 24 5 18 2 -7 2 -21 0 -30z m277 15 l26 -11 -25 -13 c-54 -28 -94 -18 -72
16 14 23 35 25 71 8z m-444 -29 c0 -6 -4 -7 -10 -4 -5 3 -10 11 -10 16 0 6 5
7 10 4 6 -3 10 -11 10 -16z m3550 17 c0 -2 -8 -10 -17 -17 -16 -13 -17 -12 -4
4 13 16 21 21 21 13z m-1769 -39 c-8 -8 -11 -7 -11 4 0 20 13 34 18 19 3 -7
-1 -17 -7 -23z m-1604 -34 c-3 -10 -5 -2 -5 17 0 19 2 27 5 18 2 -10 2 -26 0
-35z m308 17 c3 -5 16 -10 28 -11 15 -1 10 -4 -13 -10 -46 -11 -67 -4 -50 16
14 17 26 19 35 5z m3142 4 c-3 -3 -12 -4 -19 -1 -8 3 -5 6 6 6 11 1 17 -2 13
-5z m-3020 -46 c-3 -8 -6 -5 -6 6 -1 11 2 17 5 13 3 -3 4 -12 1 -19z m2521 15
c-10 -2 -28 -2 -40 0 -13 2 -5 4 17 4 22 1 32 -1 23 -4z m-2238 -13 c0 -5 -11
-10 -25 -10 -14 0 -25 5 -25 10 0 6 11 10 25 10 14 0 25 -4 25 -10z m-707 -7
c8 -14 39 -244 34 -250 -3 -2 -11 29 -18 71 -8 49 -17 76 -26 76 -7 0 -13 7
-13 16 0 8 5 12 10 9 12 -7 12 -1 1 48 -8 32 0 51 12 30z m317 -2 c0 -13 -8
-17 -47 -26 -29 -6 -33 -4 -33 14 0 18 6 21 40 21 22 0 40 -4 40 -9z m-593
-33 c-3 -7 -5 -2 -5 12 0 14 2 19 5 13 2 -7 2 -19 0 -25z m60 -10 c-3 -7 -5
-2 -5 12 0 14 2 19 5 13 2 -7 2 -19 0 -25z m-504 -108 c6 -33 6 -33 -7 5 -7
22 -16 56 -19 75 -6 33 -6 33 7 -5 7 -22 16 -56 19 -75z m394 88 c-3 -8 -6 -5
-6 6 -1 11 2 17 5 13 3 -3 4 -12 1 -19z m532 -12 c11 -19 11 -31 1 -61 -9 -27
-9 -39 -1 -44 6 -4 14 -29 17 -57 4 -36 3 -45 -5 -34 -9 12 -11 11 -11 -7 0
-27 -16 -38 -24 -17 -3 9 -2 12 4 9 10 -6 6 74 -6 133 -2 12 0 22 6 22 5 0 10
7 10 16 0 8 -4 12 -10 9 -6 -4 -10 7 -10 24 0 37 12 40 29 7z m-482 -8 c-3 -8
-6 -5 -6 6 -1 11 2 17 5 13 3 -3 4 -12 1 -19z m2568 -48 c7 -22 6 -23 -9 -8
-9 9 -16 27 -16 40 1 18 3 20 9 8 5 -8 12 -26 16 -40z m-2608 -7 c-3 -10 -5
-2 -5 17 0 19 2 27 5 18 2 -10 2 -26 0 -35z m-51 -123 c4 -19 4 -32 0 -29 -6
6 -46 158 -45 174 1 14 37 -102 45 -145z m153 128 c0 -13 -4 -41 -8 -63 -8
-38 -9 -37 -10 23 -1 35 3 62 9 62 6 0 10 -10 9 -22z m2921 -28 c-8 -15 -15
-19 -22 -12 -7 7 -6 17 2 32 8 15 15 19 22 12 7 -7 6 -17 -2 -32z m-2365 -4
c14 -16 25 -35 25 -43 0 -7 3 -12 8 -12 20 3 21 -3 4 -21 -21 -22 -92 -40 -92
-23 0 6 10 22 21 37 25 32 24 35 -18 29 -29 -5 -33 -9 -33 -34 0 -16 5 -29 10
-29 6 0 10 -12 9 -27 0 -25 -1 -26 -9 -8 -8 19 -9 19 -9 1 -2 -40 -12 -6 -17
52 -2 36 0 63 6 67 6 4 8 10 5 15 -3 5 0 12 6 16 8 5 10 2 5 -7 -4 -8 -1 -7 5
2 18 24 46 18 74 -15z m642 12 c-3 -8 -6 -5 -6 6 -1 11 2 17 5 13 3 -3 4 -12
1 -19z m-833 -14 c3 -9 6 -57 5 -107 0 -74 -3 -88 -11 -69 -6 12 -15 22 -20
22 -5 0 -6 6 -3 13 4 6 0 3 -9 -7 -17 -21 -22 -15 -29 39 -3 22 -4 18 -6 -15
-2 -68 -21 -29 -21 45 0 42 3 56 10 45 9 -13 10 -13 10 0 0 9 12 23 28 32 34
22 38 22 46 2z m-507 -36 c-3 -8 -6 -5 -6 6 -1 11 2 17 5 13 3 -3 4 -12 1 -19z
m371 -63 c0 -29 0 -29 -8 -5 -4 14 -8 41 -8 60 l0 35 8 -30 c4 -16 8 -43 8
-60z m-693 -63 c-5 -5 -23 62 -30 109 -3 18 4 3 14 -36 11 -38 18 -71 16 -73z
m1202 106 c-3 -7 -5 -2 -5 12 0 14 2 19 5 13 2 -7 2 -19 0 -25z m-1174 -31
c-8 -12 -33 20 -33 42 1 12 6 10 20 -8 11 -12 17 -28 13 -34z m2501 38 c3 -8
1 -15 -4 -15 -6 0 -10 7 -10 15 0 8 2 15 4 15 2 0 6 -7 10 -15z m2938 -52 l1
-48 7 50 7 50 0 -45 c1 -62 -9 -93 -32 -97 -91 -15 -102 -15 -102 1 0 9 8 16
19 16 10 0 18 5 18 11 0 7 14 10 36 7 30 -3 33 -2 20 8 -15 10 -15 12 -1 18
23 8 18 21 -12 33 -28 11 -28 11 -5 18 12 4 22 11 22 16 0 5 5 9 10 9 6 0 11
-21 12 -47z m-4315 15 c-3 -8 -6 -5 -6 6 -1 11 2 17 5 13 3 -3 4 -12 1 -19z
m93 -20 c0 -5 -7 -8 -15 -8 -15 0 -20 21 -8 33 7 7 23 -11 23 -25z m-860 1 c0
-12 -5 -16 -15 -13 -8 4 -15 12 -15 18 0 7 7 13 15 13 8 0 15 -8 15 -18z
m-103 -37 c2 -45 -13 -101 -60 -219 -11 -29 -18 -56 -14 -59 3 -3 76 -2 163 4
131 8 158 12 166 26 9 16 11 16 25 -1 17 -20 14 -10 -11 50 -23 54 -11 46 19
-13 20 -40 30 -50 50 -50 24 0 25 -2 25 -71 0 -77 18 -198 32 -213 13 -16 9
-46 -7 -46 -8 0 -15 8 -15 17 0 9 -5 32 -12 50 -10 27 -17 33 -41 33 -28 0
-29 -2 -23 -35 8 -39 -2 -45 -24 -16 -7 11 -17 18 -21 15 -4 -2 -10 0 -14 6
-3 5 0 11 7 12 7 1 -12 4 -42 7 -86 9 -134 2 -165 -25 -15 -13 -32 -21 -36
-18 -5 3 -9 -2 -9 -10 0 -9 -7 -16 -15 -16 -19 0 -20 36 0 44 18 6 9 36 -11
36 -8 0 -14 -4 -14 -10 0 -13 -36 -13 -60 0 -16 8 -18 8 -14 -5 4 -8 17 -15
29 -15 15 0 26 -8 30 -21 10 -29 4 -31 -48 -13 -49 17 -50 18 -38 48 5 13 1
26 -12 39 -17 17 -17 20 -4 35 24 26 39 73 38 115 -1 27 3 37 14 37 17 0 19 4
70 144 27 74 35 108 30 133 -5 27 -1 53 8 53 1 0 3 -21 4 -48z m4993 8 c12 -8
9 -10 -13 -10 -16 0 -26 4 -22 10 8 12 16 12 35 0z m-4573 -22 c-3 -8 -6 -5
-6 6 -1 11 2 17 5 13 3 -3 4 -12 1 -19z m543 3 c0 -6 -4 -13 -10 -16 -5 -3
-10 1 -10 9 0 9 5 16 10 16 6 0 10 -4 10 -9z m3842 -23 c-4 -22 40 -25 60 -4
8 8 43 15 85 18 57 3 67 1 57 -9 -7 -7 -19 -13 -27 -13 -9 0 -17 -6 -19 -12
-3 -8 -30 -13 -79 -14 -92 -2 -91 -2 -86 -11 3 -5 -15 -9 -40 -11 -45 -3 -45
-3 -38 25 3 15 7 28 8 29 47 29 84 29 79 2z m-4755 -20 c-3 -8 -6 -5 -6 6 -1
11 2 17 5 13 3 -3 4 -12 1 -19z m1310 0 c-3 -8 -6 -5 -6 6 -1 11 2 17 5 13 3
-3 4 -12 1 -19z m2995 -30 c15 -18 28 -36 28 -39 0 -9 -39 -19 -72 -19 -25 0
-28 3 -28 35 0 22 6 38 18 44 24 14 23 15 54 -21z m-5362 -49 c0 -10 -4 -19
-8 -19 -5 0 -7 -13 -4 -30 5 -35 -11 -39 -59 -15 -26 14 -44 39 -48 70 -2 10
84 24 107 17 6 -2 12 -13 12 -23z m1767 -21 c-2 -13 -4 -5 -4 17 -1 22 1 32 4
23 2 -10 2 -28 0 -40z m-2013 16 c3 -8 2 -12 -4 -9 -6 3 -10 10 -10 16 0 14 7
11 14 -7z m2183 -6 c-3 -8 -6 -5 -6 6 -1 11 2 17 5 13 3 -3 4 -12 1 -19z
m4418 -15 c3 -13 2 -23 -3 -23 -11 0 -22 24 -22 48 0 21 15 5 25 -25z m-5231
2 c3 -8 1 -15 -4 -15 -6 0 -10 7 -10 15 0 8 2 15 4 15 2 0 6 -7 10 -15z m-24
-32 c0 -7 -39 17 -46 28 -3 6 5 3 20 -6 14 -10 26 -19 26 -22z m300 -14 c0
-10 -4 -19 -10 -19 -5 0 -10 12 -10 26 0 14 4 23 10 19 6 -3 10 -15 10 -26z
m4603 -42 c-13 -21 -27 -32 -44 -33 -56 -2 -89 -15 -89 -36 0 -46 -11 -7 -15
53 -2 35 -2 58 1 52 3 -7 14 -13 25 -13 23 0 25 -18 4 -26 -8 -4 -15 -10 -15
-15 0 -5 12 -4 26 1 14 6 36 10 50 10 18 0 31 10 47 37 16 28 23 33 25 20 2
-10 -5 -32 -15 -50z m331 53 c23 -9 25 -14 25 -72 -1 -35 4 -76 10 -91 15 -38
14 -73 -3 -100 -7 -12 -20 -73 -27 -135 -7 -62 -17 -116 -22 -119 -15 -9 -27
19 -23 50 4 28 4 28 -40 21 l-44 -6 4 88 c3 49 12 139 20 199 9 61 16 116 16
123 0 14 36 52 49 52 5 0 21 -4 35 -10z m-5273 -27 c13 -16 12 -17 -3 -4 -17
13 -22 21 -14 21 2 0 10 -8 17 -17z m-1091 -38 c16 -8 29 -23 29 -32 1 -68 9
-97 29 -113 26 -21 28 -30 7 -30 -8 0 -15 -4 -15 -10 0 -17 -43 -11 -77 10
-38 23 -43 34 -10 25 21 -6 21 -5 -3 16 -17 15 -21 23 -12 26 10 4 10 8 2 19
-7 7 -8 19 -4 26 12 19 14 58 3 58 -6 0 -7 5 -4 10 8 14 21 13 55 -5z m1488
-114 c2 -88 0 -112 -10 -109 -14 5 -25 77 -27 171 -1 51 1 58 17 55 15 -3 17
-18 20 -117z m3775 102 c-7 -2 -21 -2 -30 0 -10 3 -4 5 12 5 17 0 24 -2 18 -5z
m-4609 -49 c4 -10 1 -14 -6 -12 -15 5 -23 28 -10 28 5 0 13 -7 16 -16z m3746
-8 c0 -22 -29 -41 -42 -28 -8 8 -8 15 2 27 16 19 40 20 40 1z m-3673 -78 c-3
-8 -6 -5 -6 6 -1 11 2 17 5 13 3 -3 4 -12 1 -19z m723 -4 c0 -16 -16 -19 -25
-4 -8 13 4 32 16 25 5 -4 9 -13 9 -21z m3456 -1 c-3 -3 -13 -2 -23 2 -17 7
-17 8 2 15 19 7 34 -5 21 -17z m-1535 8 c-13 -3 -28 -15 -32 -26 -4 -11 -8
-14 -8 -7 -1 6 -4 11 -8 11 -5 -1 -15 -1 -23 0 -27 2 33 29 65 29 27 0 28 -1
6 -7z m237 -28 c4 -28 -37 -41 -74 -25 -43 20 -9 52 51 48 13 -1 21 -9 23 -23z
m80 2 c7 -14 12 -32 12 -40 0 -9 6 -12 15 -9 11 5 15 -1 15 -24 0 -31 -14 -42
-51 -42 -16 0 -19 5 -14 20 4 11 3 20 -2 19 -48 -8 -55 15 -17 56 20 22 23 30
12 36 -10 7 -10 9 3 9 9 0 21 -11 27 -25z m-2937 5 c18 0 29 -5 29 -14 0 -10
-17 -15 -61 -18 -62 -3 -130 14 -99 25 8 3 22 8 30 11 8 3 28 3 44 1 16 -3 41
-5 57 -5z m4189 -11 c0 -11 -4 -17 -10 -14 -5 3 -10 13 -10 21 0 8 5 14 10 14
6 0 10 -9 10 -21z m420 11 c0 -5 -4 -10 -10 -10 -5 0 -10 5 -10 10 0 6 5 10
10 10 6 0 10 -4 10 -10z m-4850 -40 c0 -5 -10 -10 -22 -10 -13 -1 -70 -5 -127
-10 -62 -6 -110 -6 -120 0 -14 7 -14 9 -1 14 38 14 270 19 270 6z m-480 -10
c12 -8 13 -11 1 -19 -9 -6 -10 -11 -2 -15 6 -4 9 -12 6 -17 -9 -14 -55 21 -55
42 0 21 25 25 50 9z m5105 -1 c11 -17 2 -18 -19 -3 -17 12 -17 14 -4 14 9 0
20 -5 23 -11z m-1151 -42 c19 -14 19 -15 -1 -26 -19 -9 -20 -8 -16 11 4 15 2
19 -8 16 -8 -3 -13 -13 -13 -22 2 -24 -11 -19 -26 10 -12 21 -12 27 0 34 14 9
29 3 64 -23z m1204 9 c0 -22 -3 -23 -19 -13 -22 14 -24 23 -6 30 22 9 25 7 25
-17z m90 17 c-10 -2 -26 -2 -35 0 -10 3 -2 5 17 5 19 0 27 -2 18 -5z m-1386
-25 c-6 -6 -15 -8 -19 -4 -4 4 -1 11 7 16 8 5 17 7 19 4 3 -2 -1 -10 -7 -16z
m-2299 -16 c-3 -12 -9 -22 -14 -22 -12 0 -11 7 2 32 13 25 20 19 12 -10z
m-4170 -17 c-3 -14 -39 -18 -82 -10 -31 6 -33 9 -16 16 27 11 101 7 98 -6z
m4189 -37 c-2 -10 -8 -18 -13 -18 -11 0 -12 31 -2 56 6 16 7 16 13 -2 4 -10 5
-27 2 -36z m-1582 32 c0 -12 -8 -12 -35 0 -18 8 -17 9 8 9 15 1 27 -3 27 -9z
m877 -10 c69 -21 71 -25 76 -143 3 -76 1 -107 -7 -107 -6 0 -6 -4 2 -9 8 -5
12 -16 10 -26 -3 -15 -5 -15 -30 4 -17 14 -41 21 -67 21 -23 0 -41 3 -42 8 0
4 -2 42 -5 84 -2 43 -4 81 -5 85 -1 5 -1 30 0 57 1 37 4 47 15 43 8 -3 31 -11
53 -17z m588 0 c3 -5 1 -10 -4 -10 -6 0 -11 5 -11 10 0 6 2 10 4 10 3 0 8 -4
11 -10z m-268 -22 c-3 -8 -6 -5 -6 6 -1 11 2 17 5 13 3 -3 4 -12 1 -19z m28
12 c3 -5 1 -10 -4 -10 -6 0 -11 5 -11 10 0 6 2 10 4 10 3 0 8 -4 11 -10z
m3082 -12 c-3 -8 -6 -5 -6 6 -1 11 2 17 5 13 3 -3 4 -12 1 -19z m843 -23 c0
-12 -13 -15 -57 -14 l-58 1 48 8 c27 5 52 11 55 14 9 9 12 7 12 -9z m-776 -14
c3 -5 -6 -16 -20 -26 -29 -19 -51 -8 -41 19 7 17 52 22 61 7z m2903 -27 c-3
-3 -12 -4 -19 -1 -8 3 -5 6 6 6 11 1 17 -2 13 -5z m-757 -12 c0 -4 -9 -13 -20
-20 -11 -7 -20 -18 -20 -25 -1 -15 -74 -67 -95 -67 -8 0 -15 7 -15 15 0 8 -4
15 -9 15 -6 0 -9 12 -8 28 2 20 11 31 37 44 35 18 130 25 130 10z m-7740 -52
c0 -24 -13 -27 -150 -35 -105 -5 -113 -5 -96 10 11 8 28 15 38 15 10 0 18 4
18 8 0 12 66 31 115 35 50 3 75 -8 75 -33z m5300 30 c0 -5 -5 -10 -11 -10 -5
0 -7 5 -4 10 3 6 8 10 11 10 2 0 4 -4 4 -10z m-43 -6 c-3 -3 -12 -4 -19 -1 -8
3 -5 6 6 6 11 1 17 -2 13 -5z m-5022 -42 l39 -16 -33 -8 c-25 -7 -41 -5 -69
10 -49 25 -55 46 -11 37 19 -4 52 -15 74 -23z m1985 12 c0 -8 -4 -12 -10 -9
-5 3 -10 10 -10 16 0 5 5 9 10 9 6 0 10 -7 10 -16z m5150 -8 c0 -8 -4 -18 -10
-21 -5 -3 -10 3 -10 14 0 12 5 21 10 21 6 0 10 -6 10 -14z m-4954 -33 c-11
-11 -19 6 -11 24 8 17 8 17 12 0 3 -10 2 -21 -1 -24z m-1376 -39 c45 -14 79
-28 77 -31 -12 -11 -127 10 -173 32 -48 23 -49 23 -17 24 18 1 69 -11 113 -25z
m8805 -4 c-3 -6 4 -10 17 -10 21 0 21 -1 6 -17 -15 -14 -15 -18 -3 -27 21 -17
20 -67 -3 -116 -35 -75 -46 -85 -80 -71 -23 10 -42 9 -93 -2 -35 -8 -113 -15
-174 -16 -60 -1 -150 -4 -198 -7 -61 -4 -92 -2 -102 6 -11 9 -26 8 -69 -4 -30
-9 -72 -16 -94 -16 -35 0 -43 5 -60 33 -23 37 -46 165 -35 194 9 23 70 32 273
38 113 4 259 10 325 14 190 12 297 12 290 1z m-8860 -32 c6 -6 -1 -7 -20 -2
-16 3 -37 13 -45 21 -13 12 -10 12 20 2 19 -6 40 -16 45 -21z m5965 7 c0 -8
-9 -20 -20 -27 -12 -8 -20 -24 -20 -38 0 -28 -16 -50 -37 -50 -23 0 -14 27 25
79 38 53 52 62 52 36z m-5333 -36 c63 -21 93 -36 93 -46 0 -10 -6 -13 -17 -8
-17 6 -150 17 -225 18 -54 1 -57 24 -5 47 23 10 46 19 52 19 5 1 52 -13 102
-30z m7286 4 c-8 -2 -13 -22 -13 -44 0 -32 -4 -39 -19 -39 -11 0 -21 -4 -23
-8 -1 -5 -16 -12 -33 -16 -19 -4 -25 -3 -17 2 11 7 10 10 -3 16 -27 10 -41 7
-66 -15 -15 -14 -20 -23 -12 -26 14 -5 -15 -43 -33 -43 -24 0 -62 41 -79 87
-9 26 -24 53 -32 60 -16 12 -15 12 77 26 38 6 267 6 253 0z m-6913 -7 c0 -2 3
-11 6 -20 9 -23 -13 -20 -26 4 -9 16 -8 20 5 20 8 0 15 -2 15 -4z m-17 -44
c46 -28 52 -42 15 -42 -10 0 -18 -6 -18 -14 0 -27 -72 -31 -105 -6 -5 5 -29
13 -52 19 -43 12 -58 30 -25 32 9 0 35 9 57 19 55 25 72 24 128 -8z m198 11
c13 -17 13 -17 -6 -3 -11 8 -22 16 -24 17 -2 2 0 3 6 3 6 0 17 -8 24 -17z
m4479 7 c0 -5 -5 -10 -11 -10 -5 0 -7 5 -4 10 3 6 8 10 11 10 2 0 4 -4 4 -10z
m-5312 -22 c3 -13 -3 -18 -22 -18 -20 0 -26 5 -26 21 0 15 5 20 22 17 13 -2
24 -11 26 -20z m-329 1 c36 -13 40 -28 10 -36 -15 -4 -17 -8 -8 -14 21 -13 3
-22 -28 -15 -20 6 -24 10 -13 16 11 7 8 11 -13 21 -57 26 -13 50 52 28z m7106
-57 c-1 -32 5 -78 13 -105 8 -26 12 -50 9 -53 -3 -4 -25 -8 -49 -10 -340 -28
-449 -36 -452 -33 -2 2 -6 52 -10 111 -8 126 -27 112 169 128 71 6 131 12 132
14 2 1 45 3 96 3 l94 1 -2 -56z m-6035 23 c11 -13 9 -15 -13 -15 -14 0 -27 7
-31 15 -3 10 1 15 13 15 10 0 24 -7 31 -15z m-352 -13 c3 -9 -3 -13 -19 -10
-12 1 -24 9 -27 16 -3 9 3 13 19 10 12 -1 24 -9 27 -16z m730 -25 c5 -24 -15
-21 -21 4 -3 13 -1 19 6 16 7 -2 13 -11 15 -20z m4989 -55 c1 -42 6 -89 12
-104 14 -36 -3 -48 -65 -47 -66 2 -386 -11 -401 -16 -18 -6 -33 27 -22 47 6
11 4 21 -6 31 -17 17 -32 82 -27 115 2 15 10 22 25 22 12 1 47 3 77 6 85 8
278 21 345 22 l60 2 2 -78z m-5372 -2 c-5 -36 -10 -49 -18 -41 -11 11 -12 59
-2 92 13 40 27 3 20 -51z m115 60 c0 -5 -7 -10 -15 -10 -8 0 -15 5 -15 10 0 6
7 10 15 10 8 0 15 -4 15 -10z m6690 0 c-20 -13 -40 -13 -40 0 0 6 12 10 28 10
21 0 24 -2 12 -10z m-7900 -41 c0 -12 -27 -11 -35 1 -11 17 5 32 21 19 8 -6
14 -15 14 -20z m535 11 c4 -6 -5 -10 -19 -10 -14 0 -26 5 -26 10 0 6 9 10 19
10 11 0 23 -4 26 -10z m679 -30 c-1 -99 -10 -145 -28 -148 -16 -4 -18 2 -11
57 6 53 4 64 -14 87 -30 38 -26 46 17 42 35 -3 37 -5 36 -38z m-201 10 c5 -4
7 -20 5 -36 -3 -26 -7 -29 -41 -31 -28 -1 -44 -8 -58 -25 -16 -19 -26 -23 -64
-20 -44 4 -45 5 -45 37 0 18 -6 35 -12 38 -23 8 -3 16 45 19 26 2 47 6 47 10
0 23 100 30 123 8z m-473 -20 c0 -13 -30 -13 -50 0 -11 7 -7 10 18 10 17 0 32
-4 32 -10z m180 -10 c0 -5 -7 -10 -15 -10 -8 0 -15 5 -15 10 0 6 7 10 15 10 8
0 15 -4 15 -10z m-181 -35 c2 -11 8 -23 15 -27 7 -5 4 -8 -8 -8 -15 0 -16 -3
-6 -15 11 -13 8 -15 -15 -15 -20 0 -26 4 -21 15 3 8 1 15 -4 15 -18 0 -10 20
8 20 16 1 16 1 0 14 -24 18 -22 28 4 24 13 -2 24 -11 27 -23z m186 6 c3 -5 1
-12 -4 -15 -13 -8 -42 4 -35 15 7 12 31 12 39 0z m1 -56 c1 -15 -3 -25 -12
-25 -8 0 -14 9 -14 19 0 11 -6 22 -12 24 -7 3 -2 6 12 6 20 1 25 -4 26 -24z
m242 -17 c15 -15 16 -41 0 -36 -13 5 -31 48 -20 48 5 0 13 -5 20 -12z m-430
-27 c11 -6 9 -9 -7 -14 -11 -3 -25 1 -32 9 -9 11 -8 14 7 14 11 0 25 -4 32 -9z
m189 -12 c-14 -8 -22 -8 -30 0 -8 8 -3 11 19 11 25 -1 27 -2 11 -11z m-177
-19 c0 -5 -4 -10 -10 -10 -5 0 -10 5 -10 10 0 6 5 10 10 10 6 0 10 -4 10 -10z
m172 -12 c-9 -9 -15 -9 -24 0 -9 9 -7 12 12 12 19 0 21 -3 12 -12z m3925 -50
c3 6 11 12 19 12 8 0 14 5 14 10 0 6 -7 10 -15 10 -8 0 -15 5 -15 10 0 14 19
12 35 -4 12 -11 11 -17 -9 -35 -29 -27 -52 -27 -60 2 -11 42 -5 52 11 17 8
-19 17 -29 20 -22z m-113 10 c7 -34 3 -44 -13 -33 -13 7 -15 65 -2 65 5 0 11
-14 15 -32z m-73 -5 c1 -17 3 -21 6 -10 6 23 19 22 26 -4 6 -23 1 -26 -65 -32
-36 -3 -48 -1 -48 9 0 8 -4 14 -10 14 -5 0 -10 -7 -10 -15 0 -8 -7 -15 -15
-15 -8 0 -15 5 -15 10 0 6 -7 10 -16 10 -8 0 -12 -4 -9 -10 3 -5 1 -10 -4 -10
-6 0 -11 3 -11 8 0 4 -13 13 -30 20 -28 13 -42 42 -20 42 6 0 10 -7 10 -15 0
-8 7 -15 15 -15 8 0 15 7 15 15 0 10 8 7 26 -10 31 -29 44 -31 44 -10 0 8 -7
15 -15 15 -8 0 -15 5 -15 10 0 6 4 10 9 10 6 0 13 -4 16 -10 10 -16 38 -12 31
5 -4 12 4 15 39 15 42 0 45 -2 46 -27z m554 17 c-3 -5 -10 -10 -16 -10 -5 0
-9 5 -9 10 0 6 7 10 16 10 8 0 12 -4 9 -10z m-4425 -31 c0 -12 -27 -11 -35 1
-11 17 5 32 21 19 8 -6 14 -15 14 -20z m3991 18 c-1 -12 -15 -9 -19 4 -3 6 1
10 8 8 6 -3 11 -8 11 -12z m622 6 c-7 -2 -21 -2 -30 0 -10 3 -4 5 12 5 17 0
24 -2 18 -5z m67 3 c0 -3 -4 -8 -10 -11 -5 -3 -10 -1 -10 4 0 6 5 11 10 11 6
0 10 -2 10 -4z m-1066 -32 c9 -36 -1 -43 -14 -10 -12 33 -12 36 -1 36 5 0 12
-12 15 -26z m-39 -4 c3 -5 -3 -10 -14 -10 -12 0 -21 5 -21 10 0 6 6 10 14 10
8 0 18 -4 21 -10z m1142 4 c-3 -3 -12 -4 -19 -1 -8 3 -5 6 6 6 11 1 17 -2 13
-5z m237 -25 c-3 -5 -16 -9 -29 -9 -26 0 -42 -16 -23 -23 7 -2 -3 -6 -23 -8
-43 -5 -69 20 -46 43 15 15 131 12 121 -3z m-1284 1 c0 -5 -4 -10 -9 -10 -6 0
-13 5 -16 10 -3 6 1 10 9 10 9 0 16 -4 16 -10z m1020 -5 c-7 -8 -18 -15 -24
-15 -6 0 -2 7 8 15 25 19 32 19 16 0z m44 6 c4 -5 1 -11 -6 -13 -8 -3 -6 -7 5
-11 12 -4 17 -1 17 10 0 14 2 15 13 4 10 -11 10 -14 0 -18 -7 -3 -13 -13 -13
-22 0 -16 10 -18 98 -16 53 2 111 -1 127 -5 17 -4 23 -8 13 -9 -9 0 -18 -6
-20 -12 -2 -6 -47 -14 -109 -17 -91 -6 -108 -5 -123 10 -14 13 -15 20 -7 37 9
16 7 23 -11 35 -12 9 -17 16 -10 16 7 0 10 5 7 10 -3 6 -2 10 4 10 5 0 12 -4
15 -9z m-691 -24 c3 -7 19 -12 41 -11 20 1 39 -2 42 -7 3 -5 -1 -9 -8 -9 -9 0
-9 -3 2 -10 13 -9 13 -11 1 -19 -11 -7 -20 -3 -33 11 l-18 21 0 -26 c0 -27
-25 -48 -48 -40 -7 3 -23 -2 -35 -9 -31 -20 -65 -28 -70 -15 -1 5 -21 -7 -42
-29 -41 -41 -55 -47 -68 -29 -5 5 -5 -1 -2 -14 7 -23 5 -24 -26 -17 -22 4 -54
-1 -97 -15 -36 -12 -68 -17 -73 -12 -23 23 -98 168 -90 176 4 4 39 0 77 -9 51
-13 106 -17 207 -16 113 1 137 -2 137 -14 0 -8 7 -14 15 -14 8 0 15 9 15 20 0
11 4 20 10 20 15 0 50 33 50 48 0 9 -9 11 -35 6 -22 -4 -35 -2 -35 4 0 9 14
14 66 21 7 0 14 -5 17 -12z m-133 -7 c0 -17 -180 -34 -225 -21 -27 8 -24 9 25
11 30 1 78 5 105 10 73 11 95 11 95 0z m900 -1 c0 -3 -9 -9 -19 -12 -13 -3
-18 0 -15 7 5 13 34 18 34 5z m-1317 -29 c-7 -26 -22 -35 -35 -22 -15 15 -2
42 21 42 14 0 18 -5 14 -20z m802 10 c-3 -5 -10 -10 -16 -10 -5 0 -9 5 -9 10
0 6 7 10 16 10 8 0 12 -4 9 -10z m155 -51 c7 -11 10 -22 8 -24 -2 -1 -27 -5
-57 -7 -46 -5 -54 -3 -58 13 -3 11 -10 19 -17 20 -28 1 34 18 71 18 33 1 45
-4 53 -20z m-1970 -9 c0 -5 -10 -10 -22 -10 -17 0 -20 -3 -9 -9 20 -13 6 -42
-15 -34 -12 4 -15 3 -10 -5 4 -7 1 -15 -8 -18 -20 -8 -54 4 -40 14 6 4 11 15
11 25 0 13 -9 17 -37 17 -35 0 -36 -1 -32 -35 4 -32 2 -35 -22 -35 -21 0 -26
5 -26 24 0 13 6 27 13 29 6 3 -5 6 -25 6 -62 2 -43 16 25 19 34 2 87 7 117 11
79 12 80 12 80 1z m52 -17 c-2 -18 1 -21 20 -17 14 3 10 -1 -11 -10 -18 -9
-41 -16 -50 -15 -10 0 -11 2 -3 6 6 2 12 9 12 15 0 6 -7 8 -14 5 -10 -4 -13
-1 -9 9 3 7 9 14 15 14 5 0 6 5 2 11 -4 7 2 9 17 7 18 -2 23 -8 21 -25z m-179
-43 c3 -13 0 -20 -9 -20 -8 0 -14 10 -14 26 0 28 15 25 23 -6z m-113 0 c0 -11
-4 -20 -10 -20 -5 0 -10 9 -10 20 0 11 5 20 10 20 6 0 10 -9 10 -20z m3516
-13 c-39 -39 -42 -69 -12 -154 35 -104 26 -104 -12 0 -35 96 -33 126 10 163
38 31 48 25 14 -9z m-3623 8 c7 -17 -8 -29 -28 -21 -9 3 -12 0 -8 -10 3 -8 -1
-14 -11 -14 -23 0 -21 47 2 53 32 8 40 7 45 -8z m60 8 c-7 -2 -19 -2 -25 0 -7
3 -2 5 12 5 14 0 19 -2 13 -5z m3483 -14 c-15 -12 -30 -18 -34 -14 -9 8 26 35
46 35 9 0 4 -8 -12 -21z m-1758 -7 c2 -7 -7 -12 -23 -12 -24 0 -26 2 -15 15
14 17 31 16 38 -3z m722 3 c0 -8 -4 -15 -10 -15 -5 0 -10 7 -10 15 0 8 5 15
10 15 6 0 10 -7 10 -15z m-640 -5 c0 -5 -7 -10 -16 -10 -8 0 -12 5 -9 10 3 6
10 10 16 10 5 0 9 -4 9 -10z m221 -9 c12 -11 18 -24 14 -30 -10 -17 -52 -13
-59 5 -17 45 8 59 45 25z m909 -56 c0 -16 -7 -24 -25 -28 -33 -6 -53 24 -29
44 8 7 13 18 10 26 -4 10 1 9 19 -3 15 -9 25 -26 25 -39z m-2460 31 c0 -21
-37 -104 -59 -132 -19 -24 -20 -24 -26 -4 -3 11 -12 20 -20 20 -7 0 -20 7 -28
15 -9 9 -45 17 -87 21 l-71 7 133 43 c148 48 158 50 158 30z m1650 4 c0 -5 -2
-10 -4 -10 -3 0 -8 5 -11 10 -3 6 -1 10 4 10 6 0 11 -4 11 -10z m149 -6 c-7
-8 -21 -13 -31 -11 -10 3 -21 1 -24 -4 -8 -14 -41 -11 -47 5 -9 22 2 26 61 26
48 0 53 -2 41 -16z m1131 -4 c-6 -11 -13 -20 -16 -20 -2 0 0 9 6 20 6 11 13
20 16 20 2 0 0 -9 -6 -20z m-2259 -14 c25 -54 -24 -107 -51 -57 -11 22 -13 64
-3 74 14 15 44 6 54 -17z m-3151 -1 c0 -10 -10 -15 -30 -15 -29 0 -38 9 -23
23 13 13 53 7 53 -8z m685 5 c-28 -12 -47 -12 -40 0 3 6 18 10 33 9 24 0 25
-1 7 -9z m3942 -6 c72 -6 82 -9 87 -28 13 -47 9 -51 -49 -51 -56 0 -74 -11
-75 -44 0 -11 13 -12 65 -7 55 5 65 4 65 -9 0 -8 5 -15 10 -15 6 0 10 4 10 9
0 5 9 11 20 14 27 7 25 27 -2 24 -19 -2 -24 4 -26 31 -2 17 1 32 6 32 6 0 37
-20 70 -45 33 -25 64 -45 70 -45 6 0 13 -8 17 -17 3 -10 33 -40 67 -68 79 -64
134 -113 290 -258 118 -109 158 -151 130 -133 -6 4 -29 -3 -52 -14 -36 -18
-47 -19 -104 -10 -35 5 -71 7 -80 4 -10 -4 -34 9 -63 33 -27 22 -101 79 -165
128 -71 52 -115 92 -111 99 3 6 3 8 -2 4 -11 -11 -47 11 -39 24 4 7 3 8 -4 4
-14 -8 -98 52 -94 67 2 7 0 9 -3 5 -10 -9 -47 10 -41 21 3 4 -3 13 -14 21 -10
7 -16 19 -13 26 3 8 -11 17 -39 25 -24 7 -54 20 -68 30 -31 21 -107 59 -117
59 -4 0 21 -17 55 -37 35 -21 59 -39 53 -41 -9 -3 -61 20 -111 49 -18 11 -61
30 -75 33 -5 2 -17 6 -25 9 -28 11 -79 14 -73 4 3 -5 0 -8 -7 -5 -18 6 -36 35
-28 44 7 6 109 -16 152 -32 12 -4 15 -2 10 9 -8 21 43 55 92 60 21 3 59 3 84
1 25 -2 82 -7 127 -10z m-4750 -20 c-4 -25 -3 -26 32 -21 20 3 48 8 63 12 22
6 36 1 67 -24 24 -19 45 -29 55 -25 9 3 13 10 10 15 -3 5 4 9 15 9 11 0 23 -4
26 -10 9 -15 36 -12 57 7 17 15 18 15 18 -1 0 -9 -7 -19 -15 -22 -21 -9 -137
-9 -155 -1 -10 5 -18 0 -25 -15 -11 -25 -55 -38 -55 -17 0 47 -92 67 -130 29
-11 -11 -20 -24 -20 -30 0 -5 -6 -7 -14 -4 -17 6 -18 42 -2 63 8 10 8 15 -1
18 -23 8 -13 32 15 36 62 9 65 9 59 -19z m743 1 c0 -8 -8 -15 -18 -15 -10 0
-26 -10 -37 -22 -17 -20 -20 -21 -23 -5 -2 11 -13 17 -29 17 -39 0 -22 24 23
31 69 11 84 10 84 -6z m-251 -25 c25 -13 22 -55 -4 -55 -13 0 -20 6 -19 18 2
20 0 20 -42 8 -37 -10 -62 0 -42 16 12 10 40 18 76 22 7 0 21 -3 31 -9z m1329
-19 c137 -19 184 -30 131 -32 -13 0 -46 -9 -74 -20 -34 -13 -41 -18 -21 -15
l30 4 -24 -18 c-13 -10 -30 -15 -38 -12 -24 9 -40 -24 -36 -76 3 -38 2 -42 -5
-20 -5 15 -30 51 -55 80 -25 29 -46 57 -46 62 0 5 -8 18 -17 28 -15 17 -15 20
-3 28 8 6 15 10 15 10 0 0 65 -9 143 -19z m-1031 -34 c-8 -15 -25 -62 -38
-106 l-24 -79 -60 -5 c-34 -3 -65 -1 -72 5 -7 5 -26 7 -43 3 -20 -4 -43 -1
-65 9 -47 23 -95 31 -95 17 0 -6 -6 -11 -14 -11 -8 0 -16 -6 -18 -12 -7 -21
-58 8 -58 32 0 12 -6 33 -14 49 -14 27 -14 27 20 29 l34 3 0 -46 c0 -32 4 -45
14 -45 22 0 26 14 16 50 -5 19 -9 35 -7 36 1 1 49 7 107 14 58 6 129 18 159
26 29 9 61 12 69 9 9 -3 13 -2 8 2 -7 7 84 55 92 48 1 -1 -4 -14 -11 -28z
m3108 9 c57 -10 64 -14 39 -17 -17 -3 -40 -2 -50 1 -53 19 -199 -37 -219 -83
l-11 -28 -12 26 c-7 14 -17 23 -22 20 -13 -8 -13 5 0 25 7 11 5 17 -8 22 -12
5 -8 7 14 7 16 1 34 5 40 10 13 14 126 40 144 34 8 -3 47 -11 85 -17z m245 14
c18 -12 2 -12 -25 0 -13 6 -15 9 -5 9 8 0 22 -4 30 -9z m-3714 -25 c-16 -17
-46 -20 -46 -6 0 11 18 19 43 20 16 1 17 -1 3 -14z m1924 6 c0 -5 -10 -11 -23
-13 -14 -3 -24 0 -24 7 0 6 11 12 24 13 13 1 23 -2 23 -7z m1867 -33 c25 -27
53 -89 52 -115 0 -10 -7 4 -15 30 -9 30 -30 63 -55 88 -22 22 -32 36 -22 31
10 -6 28 -21 40 -34z m582 28 c9 -11 6 -15 -16 -19 -33 -6 -35 -5 -27 17 8 20
28 21 43 2z m-4469 -5 c0 -10 -25 -21 -48 -21 -12 0 -9 4 8 14 31 17 40 19 40
7z m2067 3 c-3 -3 -12 -4 -19 -1 -8 3 -5 6 6 6 11 1 17 -2 13 -5z m100 -10
c-3 -3 -12 -4 -19 -1 -8 3 -5 6 6 6 11 1 17 -2 13 -5z m475 -19 c13 -29 0 -52
-25 -42 -14 5 -29 52 -19 62 13 12 33 3 44 -20z m-967 5 c-3 -5 -16 -10 -28
-9 -21 0 -21 1 -2 9 28 12 37 12 30 0z m-55 -4 c0 -2 -7 -7 -16 -10 -8 -3 -12
-2 -9 4 6 10 25 14 25 6z m-2039 -48 c8 -16 5 -18 -23 -17 -31 0 -32 1 -9 10
19 7 22 12 13 21 -7 7 -12 17 -12 23 0 10 11 -3 31 -37z m2524 21 c4 -6 5 -12
3 -15 -10 -9 -90 -16 -106 -8 -19 8 -26 10 -44 14 -7 1 -2 6 12 10 37 12 128
12 135 -1z m1361 -16 c-7 -7 -26 7 -26 19 0 6 6 6 15 -2 9 -7 13 -15 11 -17z
m-1776 -17 c0 -13 -87 -36 -138 -36 -44 0 -17 25 39 35 82 16 99 16 99 1z
m1899 -12 c37 -48 20 -131 -26 -122 -19 3 -58 110 -49 133 9 24 53 18 75 -11z
m-3899 8 c-23 -4 -24 -5 -5 -13 19 -7 19 -8 -1 -8 -12 -1 -24 6 -28 14 -4 12
2 15 27 14 28 -2 29 -2 7 -7z m1024 -40 c-1 -51 -20 -69 -46 -45 -18 16 -25
73 -11 87 4 4 19 6 33 4 23 -3 25 -7 24 -46z m1480 12 c3 -8 2 -12 -4 -9 -6 3
-10 10 -10 16 0 14 7 11 14 -7z m-74 -10 c0 -9 -72 -35 -85 -30 -28 10 -17 35
18 38 31 3 67 -1 67 -8z m-1084 -46 c0 -19 4 -40 8 -47 6 -9 -1 -12 -25 -9
-29 3 -34 7 -37 31 -4 30 23 70 42 64 6 -2 11 -19 12 -39z m-1268 24 c19 -1
31 -6 27 -12 -3 -5 -2 -10 4 -10 5 0 12 6 15 13 5 9 7 9 12 0 3 -8 15 -11 30
-7 15 4 24 2 24 -5 0 -6 -9 -11 -21 -11 -12 0 -17 -4 -13 -11 3 -6 -1 -10 -12
-9 -34 4 -44 0 -44 -16 0 -10 -6 -14 -14 -11 -8 3 -17 1 -20 -6 -3 -7 -3 -2
-1 10 3 12 1 24 -5 28 -5 3 -10 -1 -10 -9 0 -10 -9 -16 -25 -16 -14 0 -25 5
-25 10 0 6 9 10 19 10 10 0 21 7 25 15 5 13 1 13 -31 0 -19 -8 -52 -15 -72
-15 -27 0 -32 -3 -21 -10 12 -8 9 -10 -12 -10 -15 0 -30 5 -33 10 -10 16 -23
11 -20 -7 1 -10 0 -12 -2 -5 -3 6 -9 12 -15 12 -19 0 33 39 66 49 52 16 74 18
174 13z m1857 -28 c-30 -22 -63 -28 -81 -13 -21 17 -3 26 55 27 43 1 45 0 26
-14z m192 -36 c-3 -8 -6 -5 -6 6 -1 11 2 17 5 13 3 -3 4 -12 1 -19z m-2499 -9
c-10 -7 -10 -9 2 -10 10 0 11 -2 2 -6 -6 -2 -9 -10 -5 -16 4 -6 0 -8 -10 -4
-9 3 -18 1 -21 -6 -4 -7 -4 -1 0 13 3 14 6 30 6 36 1 6 10 9 21 6 14 -4 16 -7
5 -13z m827 11 c-3 -5 -26 -10 -51 -10 -28 0 -43 4 -39 10 3 6 26 10 51 10 28
0 43 -4 39 -10z m2117 -12 c-6 -6 -15 -8 -19 -4 -4 4 -1 11 7 16 19 12 27 3
12 -12z m-2269 -8 c-6 -22 -18 -26 -29 -9 -3 6 0 15 7 20 22 14 28 11 22 -11z
m1114 4 c-3 -3 -12 -4 -19 -1 -8 3 -5 6 6 6 11 1 17 -2 13 -5z m1313 -4 c-8
-5 -33 -9 -55 -9 -31 0 -36 2 -20 9 29 13 94 13 75 0z m278 -2 c-3 -7 -13 -15
-23 -16 -15 -4 -16 -2 -4 12 17 19 32 21 27 4z m-2845 -14 c-3 -12 -43 -18
-43 -6 0 5 3 11 6 14 8 9 39 2 37 -8z m1617 -15 c-38 -11 -60 -10 -60 2 0 6 7
9 15 6 8 -4 17 -2 20 2 3 5 15 6 28 3 22 -6 22 -6 -3 -13z m623 -23 c-5 -23
-9 -24 -101 -28 -54 -3 -104 -1 -112 3 -9 5 -10 9 -3 9 6 0 15 9 18 20 6 18
15 20 104 20 98 0 98 0 94 -24z m-2649 -1 c-7 -17 -20 -20 -28 -6 -7 10 3 21
20 21 8 0 11 -6 8 -15z m926 -11 c0 -8 -4 -14 -10 -14 -5 0 -10 9 -10 21 0 11
5 17 10 14 6 -3 10 -13 10 -21z m1164 6 c6 -6 -7 -8 -33 -7 -24 1 -38 3 -31 5
9 3 9 7 -1 14 -10 7 -3 8 21 4 19 -4 39 -11 44 -16z m-1915 -20 c6 0 11 7 11
15 0 9 9 15 25 15 32 0 32 -13 1 -30 -26 -13 -96 -6 -96 10 0 15 25 18 36 4 6
-8 16 -14 23 -14z m2721 22 c0 -9 -150 -35 -157 -28 -2 2 31 11 74 19 43 8 79
15 81 16 1 1 2 -3 2 -7z m-637 -18 c-1 -6 20 -9 60 -6 43 3 59 1 52 -6 -5 -6
-39 -13 -75 -16 -36 -2 -79 -8 -96 -11 l-32 -7 20 -62 c11 -33 24 -65 28 -69
4 -5 31 -1 61 7 29 9 65 16 81 16 24 0 28 -4 28 -30 0 -16 5 -30 10 -30 6 0
10 11 10 25 0 24 3 27 33 29 6 1 15 5 19 10 10 14 168 21 168 7 0 -6 -8 -11
-17 -11 -11 0 -6 -6 14 -16 29 -15 32 -20 35 -75 1 -32 0 -59 -4 -59 -4 0 -9
-10 -11 -22 -3 -13 -2 8 1 46 l5 68 -104 -6 c-124 -7 -209 -16 -264 -25 -42
-7 -42 -6 -28 -73 6 -31 18 -36 27 -12 6 16 94 59 103 51 2 -3 -12 -10 -31
-17 -53 -17 -89 -60 -51 -60 8 0 15 7 15 15 0 21 56 49 67 33 5 -9 9 -5 13 11
5 23 6 23 23 7 9 -10 17 -13 17 -7 0 15 40 14 41 -1 0 -10 2 -10 6 0 2 6 12
12 22 12 23 0 63 -29 56 -41 -4 -5 1 -9 9 -9 36 0 12 43 -29 53 -20 5 -20 5 0
6 26 1 65 -26 65 -44 0 -8 -11 -17 -25 -21 -14 -3 -25 -12 -25 -20 0 -8 -4
-14 -10 -14 -14 0 -13 13 2 28 8 8 8 12 1 12 -6 0 -16 -7 -23 -15 -7 -8 -29
-15 -49 -15 -28 0 -33 -3 -21 -11 16 -11 -77 -2 -95 10 -5 3 -29 6 -53 6 l-43
0 5 -60 c5 -57 5 -58 -5 -15 -5 25 -14 71 -21 103 -6 32 -15 60 -19 63 -5 3
-9 16 -9 29 0 13 -4 27 -10 30 -5 3 -10 13 -10 22 0 18 -24 75 -78 185 -4 8
49 16 103 14 22 0 39 -6 38 -12z m-2733 -3 c0 -11 -25 -21 -51 -21 -26 0 -24
18 4 23 39 8 47 7 47 -2z m1360 -5 c0 -23 -16 -27 -17 -5 -1 10 2 19 8 19 5 0
9 -6 9 -14z m730 0 c0 -8 14 -18 31 -21 41 -9 20 -25 -33 -25 -28 0 -38 4 -38
16 0 9 -5 13 -12 9 -7 -4 -2 3 11 14 27 24 41 27 41 7z m-1370 0 c0 -2 -7 -7
-16 -10 -8 -3 -12 -2 -9 4 6 10 25 14 25 6z m1823 -25 c10 -11 8 -12 -8 -3
-13 6 -39 7 -70 2 -90 -15 -205 -20 -205 -10 0 6 28 11 63 11 55 2 58 3 22 8
-23 4 8 6 73 6 79 -1 116 -5 125 -14z m-2298 -11 c-3 -5 2 -11 12 -11 10 -1
-4 -5 -32 -10 -51 -8 -77 -3 -36 8 17 4 19 8 9 14 -9 6 -2 9 20 9 20 0 31 -4
27 -10z m205 0 c0 -5 -10 -10 -22 -9 -22 0 -22 1 -3 9 11 5 21 9 23 9 1 1 2
-3 2 -9z m167 -1 c-31 -5 -67 -4 -80 0 -15 6 3 9 58 9 l80 -1 -58 -8z m1623
-5 c0 -2 -13 -4 -30 -4 -16 0 -30 4 -30 8 0 5 14 7 30 4 17 -2 30 -6 30 -8z
m-2103 -9 c0 -8 -6 -15 -12 -15 -7 0 -27 -3 -44 -6 -24 -5 -31 -3 -31 9 0 18
14 25 56 26 21 1 31 -4 31 -14z m183 5 c0 -5 -2 -10 -4 -10 -3 0 -8 5 -11 10
-3 6 -1 10 4 10 6 0 11 -4 11 -10z m190 -20 c0 -13 -67 -30 -139 -33 -41 -2
-61 1 -61 8 0 8 36 16 98 22 53 5 98 11 100 11 1 1 2 -2 2 -8z m716 0 c26 -10
27 -12 20 -73 -7 -68 -23 -93 -55 -82 -39 12 -46 108 -10 151 14 17 11 17 45
4z m1034 2 c0 -4 -16 -6 -35 -4 -19 2 -35 6 -35 8 0 2 16 4 35 4 19 0 35 -4
35 -8z m25 -2 c3 -5 1 -10 -4 -10 -6 0 -11 5 -11 10 0 6 2 10 4 10 3 0 8 -4
11 -10z m254 6 c-2 -2 -40 -6 -84 -9 -47 -3 -72 -2 -60 3 19 8 153 14 144 6z
m1706 -15 c3 -5 1 -12 -5 -16 -5 -3 -10 1 -10 9 0 18 6 21 15 7z m-2423 -10
c-9 -5 0 -10 27 -15 29 -4 53 -18 85 -49 53 -51 67 -103 64 -240 l-1 -92 -8
120 c-8 141 -25 192 -67 201 -56 12 -63 16 -58 29 5 14 -14 25 -45 25 -10 0
-19 7 -19 15 0 8 8 15 18 15 13 0 14 -2 4 -9z m-1522 -11 c0 -5 -7 -10 -16
-10 -8 0 -12 5 -9 10 3 6 10 10 16 10 5 0 9 -4 9 -10z m155 -23 c-22 -15 -177
-39 -198 -31 -8 3 -27 0 -43 -6 -22 -8 -26 -8 -18 0 17 17 83 30 116 23 16 -3
39 -1 51 5 34 16 49 20 82 21 28 1 28 0 10 -12z m482 -29 c-3 -8 -6 -5 -6 6
-1 11 2 17 5 13 3 -3 4 -12 1 -19z m658 -28 c-11 -5 -27 -9 -35 -9 -9 0 -8 4
5 9 11 5 27 9 35 9 9 0 8 -4 -5 -9z m4084 4 c33 -4 61 -10 61 -14 0 -5 -8 -6
-17 -4 -10 3 -61 8 -113 13 -65 6 -79 9 -44 10 28 0 79 -2 113 -5z m1057 -5
c3 -5 -14 -9 -38 -9 -24 0 -54 -3 -68 -6 -21 -4 -21 -3 5 9 34 16 92 20 101 6z
m47 4 c-7 -2 -19 -2 -25 0 -7 3 -2 5 12 5 14 0 19 -2 13 -5z m-6483 -28 c-25
-26 -46 -34 -34 -12 6 10 4 10 -7 0 -18 -18 -34 -16 -19 2 10 12 10 15 -1 16
-25 1 25 18 55 18 l29 1 -23 -25z m-760 0 c0 -8 -6 -15 -14 -15 -7 0 -19 7
-26 15 -11 13 -8 15 14 15 16 0 26 -5 26 -15z m4298 -65 c0 -22 -1 -22 -8 5
-4 17 -8 41 -8 55 0 22 1 22 8 -5 4 -16 8 -41 8 -55z m2747 69 c-3 -4 -41 -7
-85 -7 -47 0 -87 -5 -95 -12 -14 -12 -35 -6 -35 10 0 5 8 10 17 12 34 6 202 4
198 -3z m-7085 -19 c0 -14 -27 -19 -39 -7 -18 18 -13 25 14 19 14 -2 25 -8 25
-12z m2040 16 c0 -2 -7 -7 -16 -10 -8 -3 -12 -2 -9 4 6 10 25 14 25 6z m480
-46 c-15 -28 -23 -20 -14 15 4 17 10 23 16 17 6 -6 6 -18 -2 -32z m3733 33
c-7 -2 -19 -2 -25 0 -7 3 -2 5 12 5 14 0 19 -2 13 -5z m1140 -9 c46 -8 48 -19
5 -28 -124 -26 -203 -39 -273 -43 -88 -6 -225 4 -225 16 0 5 23 6 50 3 36 -3
50 -1 50 8 0 8 10 11 29 8 17 -2 28 -1 25 3 -2 4 22 9 53 12 32 3 76 10 98 15
48 12 135 14 188 6z m-7744 -17 c-2 -2 -22 -14 -44 -27 -35 -21 -38 -22 -25
-5 21 28 32 35 54 35 11 0 17 -1 15 -3z m361 -7 c0 -5 -10 -15 -22 -21 -23
-12 -23 -12 -4 10 21 23 26 26 26 11z m2070 -68 c0 -48 -8 -60 -36 -54 -22 4
-24 8 -19 36 3 17 11 41 17 53 9 18 13 20 24 8 8 -7 14 -27 14 -43z m1373 51
c-7 -2 -19 -2 -25 0 -7 3 -2 5 12 5 14 0 19 -2 13 -5z m-3016 -9 c-3 -3 -12
-4 -19 -1 -8 3 -5 6 6 6 11 1 17 -2 13 -5z m343 -14 c-13 -24 -17 -24 -36 -6
-19 20 -18 21 16 23 27 2 29 0 20 -17z m5430 4 c0 -2 -21 -4 -47 -3 -37 1 -42
3 -23 8 24 7 70 3 70 -5z m-5513 0 c-3 -3 -12 -4 -19 -1 -8 3 -5 6 6 6 11 1
17 -2 13 -5z m5393 -3 c0 -4 -60 -12 -134 -17 -74 -5 -132 -6 -129 -1 2 4 21
8 41 8 20 1 51 4 67 8 43 10 155 12 155 2z m215 -1 c4 -6 -5 -10 -19 -10 -14
0 -26 5 -26 10 0 6 9 10 19 10 11 0 23 -4 26 -10z m303 -50 c-5 -25 -35 -24
-40 2 -3 13 -9 32 -13 42 -7 17 -4 16 24 -5 17 -13 30 -30 29 -39z m1022 51
c-8 -5 -55 -14 -105 -21 -49 -6 -98 -14 -107 -16 -10 -3 -18 -1 -18 4 0 5 20
13 45 16 24 4 47 11 50 17 4 5 39 9 78 9 45 0 66 -4 57 -9z m-2010 -17 c0 -12
7 -14 30 -9 19 4 30 3 30 -4 0 -6 -19 -11 -45 -11 -48 0 -48 0 -39 24 8 21 24
21 24 0z m-5077 -18 c-13 -18 -19 -20 -21 -9 -3 12 -6 11 -19 -4 -8 -10 -12
-13 -9 -6 4 6 2 14 -4 18 -5 3 -10 0 -10 -8 0 -10 -23 -14 -102 -15 l-103 -1
95 15 c52 8 109 19 125 24 17 4 38 9 48 9 17 1 17 0 0 -23z m187 14 c0 -5 -21
-10 -47 -10 -27 0 -59 -3 -73 -6 -18 -5 -22 -4 -15 4 9 9 38 15 113 20 12 1
22 -2 22 -8z m3628 -60 c0 -22 -1 -22 -8 5 -4 17 -8 39 -8 50 0 16 2 15 8 -5
4 -14 8 -36 8 -50z m1222 58 c0 -4 -15 -8 -34 -8 -19 0 -45 -9 -60 -21 -15
-12 -30 -19 -33 -15 -8 7 -6 9 36 34 34 20 91 27 91 10z m200 2 c0 -5 -17 -10
-37 -9 -34 1 -35 2 -13 9 36 11 50 11 50 0z m-5033 -26 c-3 -3 -12 -4 -19 -1
-8 3 -5 6 6 6 11 1 17 -2 13 -5z m4608 -4 c3 -5 1 -10 -4 -10 -6 0 -11 5 -11
10 0 6 2 10 4 10 3 0 8 -4 11 -10z m2002 4 c-3 -3 -12 -4 -19 -1 -8 3 -5 6 6
6 11 1 17 -2 13 -5z m-6717 -14 c-31 -10 -93 -12 -68 -2 10 4 35 8 55 9 32 1
34 0 13 -7z m57 4 c-3 -3 -12 -4 -19 -1 -8 3 -5 6 6 6 11 1 17 -2 13 -5z
m5388 -4 c3 -6 -4 -10 -17 -10 -18 0 -20 2 -8 10 19 12 18 12 25 0z m119 -2
c-3 -4 -25 -8 -49 -8 -24 0 -46 4 -49 8 -2 4 20 8 49 8 29 0 51 -4 49 -8z
m-274 -7 c0 -12 -107 -24 -122 -14 -8 5 8 10 42 14 30 3 61 6 68 7 6 1 12 -2
12 -7z m75 -1 c-3 -5 -10 -10 -16 -10 -5 0 -9 5 -9 10 0 6 7 10 16 10 8 0 12
-4 9 -10z m-2685 -9 c0 -5 8 -12 18 -15 10 -3 7 -4 -7 -3 -24 2 -44 27 -22 27
6 0 11 -4 11 -9z m313 -198 c4 -118 4 -135 -3 -68 -13 145 -18 282 -10 253 4
-14 10 -98 13 -185z m2087 198 c0 -12 -20 -25 -27 -18 -7 7 6 27 18 27 5 0 9
-4 9 -9z m1443 2 c-7 -2 -19 -2 -25 0 -7 3 -2 5 12 5 14 0 19 -2 13 -5z
m-6570 -17 c1 -5 -14 -10 -33 -11 -34 -3 -34 -3 -10 11 26 14 40 14 43 0z m91
2 c-7 -12 -62 -10 -69 2 -4 7 8 10 34 9 22 -2 38 -6 35 -11z m4908 -10 c-6 -6
-15 -8 -19 -4 -4 4 -1 11 7 16 19 12 27 3 12 -12z m83 12 c-3 -5 -10 -10 -16
-10 -5 0 -9 5 -9 10 0 6 7 10 16 10 8 0 12 -4 9 -10z m-5450 -10 c3 -5 12 -10
18 -10 7 0 6 4 -3 11 -11 8 7 9 64 5 43 -3 103 -6 132 -6 52 0 53 -1 45 -24
-5 -13 -21 -36 -35 -51 -26 -28 -59 -28 -81 1 -5 7 -26 15 -46 18 -20 3 -43 8
-52 12 -10 3 -23 1 -30 -5 -23 -18 -101 10 -105 37 -3 20 1 22 42 22 25 0 48
-4 51 -10z m5260 -10 c8 -13 -5 -13 -25 0 -13 8 -13 10 2 10 9 0 20 -4 23 -10z
m58 3 c-7 -2 -21 -2 -30 0 -10 3 -4 5 12 5 17 0 24 -2 18 -5z m847 -3 c0 -5
-17 -10 -37 -9 -34 1 -35 2 -13 9 36 11 50 11 50 0z m45 0 c3 -5 -3 -10 -14
-10 -12 0 -21 5 -21 10 0 6 6 10 14 10 8 0 18 -4 21 -10z m-5739 -7 c-8 -9
-20 -10 -121 -19 -44 -3 -77 -3 -72 2 4 4 40 11 80 14 108 10 121 11 113 3z
m41 -13 c-1 -12 -5 -16 -10 -11 -5 5 -6 14 -3 20 11 16 15 13 13 -9z m3630
-12 c-3 -7 -5 -2 -5 12 0 14 2 19 5 13 2 -7 2 -19 0 -25z m-840 -5 c13 -20 12
-21 -50 -32 -35 -6 -81 -11 -103 -11 -35 0 -40 3 -42 25 -1 21 3 25 26 26 60
2 125 9 130 14 9 9 24 0 39 -22z m2438 17 c3 -5 1 -10 -4 -10 -6 0 -11 5 -11
10 0 6 2 10 4 10 3 0 8 -4 11 -10z m42 4 c-3 -3 -12 -4 -19 -1 -8 3 -5 6 6 6
11 1 17 -2 13 -5z m-440 -10 c-3 -3 -12 -4 -19 -1 -8 3 -5 6 6 6 11 1 17 -2
13 -5z m-4816 -27 c-10 -9 -11 -8 -5 6 3 10 9 15 12 12 3 -3 0 -11 -7 -18z
m-1201 3 c0 -5 -4 -10 -10 -10 -5 0 -10 5 -10 10 0 6 5 10 10 10 6 0 10 -4 10
-10z m1098 3 c-16 -2 -40 -2 -55 0 -16 2 -3 4 27 4 30 0 43 -2 28 -4z m-110
-10 c-10 -2 -28 -2 -40 0 -13 2 -5 4 17 4 22 1 32 -1 23 -4z m6129 -9 c-3 -3
-12 -4 -19 -1 -8 3 -5 6 6 6 11 1 17 -2 13 -5z m-7092 -14 c-3 -5 -10 -10 -16
-10 -5 0 -9 5 -9 10 0 6 7 10 16 10 8 0 12 -4 9 -10z m664 -16 c12 -14 12 -15
1 -7 -16 11 -44 10 -74 -2 -14 -6 -17 -5 -12 3 4 7 2 12 -3 12 -6 0 -11 5 -11
11 0 18 80 4 99 -17z m351 17 c-21 -11 -154 -21 -143 -11 7 8 31 11 128 17 20
1 25 -1 15 -6z m86 -10 c-16 -3 -34 -15 -40 -26 -6 -11 -18 -25 -26 -32 -13
-10 -13 -15 3 -41 14 -25 15 -33 4 -44 -17 -18 -121 -176 -141 -215 -14 -29
-21 -33 -56 -33 -22 0 -41 -4 -41 -10 -1 -5 -2 -15 -3 -21 -2 -20 -40 -39 -56
-28 -13 8 -11 12 9 29 l23 20 -38 0 c-22 0 -55 -4 -74 -8 -19 -5 -43 -6 -53
-4 -16 3 -15 9 13 59 17 30 29 62 26 70 -3 8 -1 11 4 8 6 -3 10 -3 11 2 0 4 2
16 4 26 2 13 -1 17 -11 13 -11 -4 -12 -2 -4 13 7 15 6 20 -9 24 -10 2 -26 0
-35 -5 -10 -6 -16 -5 -16 1 0 10 30 23 46 20 20 -3 24 2 15 19 -8 15 -5 18 22
21 18 2 42 4 55 3 17 0 34 16 64 57 56 76 53 74 79 61 l22 -12 -23 -18 c-22
-16 -21 -17 36 -13 72 5 85 9 82 24 -4 15 77 48 112 47 23 0 23 -1 -4 -7z m54
-1 c0 -5 -5 -10 -11 -10 -5 0 -7 5 -4 10 3 6 8 10 11 10 2 0 4 -4 4 -10z
m1767 -112 c-2 -24 -4 -7 -4 37 0 44 2 63 4 43 2 -21 2 -57 0 -80z m1081 93
c7 -1 10 -6 7 -11 -4 -6 -25 -11 -48 -11 -88 0 -164 -6 -176 -14 -9 -5 -12 -2
-9 11 2 15 16 18 87 21 46 1 86 4 88 7 2 2 12 3 21 1 9 -2 23 -4 30 -4z m-245
-26 c-3 -17 -29 -29 -48 -21 -14 5 -15 9 -5 22 14 16 56 16 53 -1z m-3053 -26
c0 -18 -18 -9 -23 12 -4 16 -3 18 9 8 8 -6 14 -15 14 -20z m-34 -8 c-4 -6 -13
-11 -19 -11 -8 0 -7 3 2 9 8 5 10 14 6 22 -6 11 -5 11 5 2 7 -6 9 -16 6 -22z
m2572 2 c-2 -9 -9 -18 -17 -21 -8 -3 -11 0 -7 7 4 6 0 11 -9 11 -9 0 -13 5
-10 10 11 17 47 12 43 -7z m1045 10 c-7 -2 -19 -2 -25 0 -7 3 -2 5 12 5 14 0
19 -2 13 -5z m-266 -28 c3 -9 2 -19 -2 -23 -4 -4 -10 -1 -12 6 -3 6 -9 12 -14
12 -6 0 -7 -4 -4 -10 4 -6 -18 -11 -57 -11 -35 -1 -83 -2 -108 -3 -25 0 -47
-4 -50 -7 -3 -3 -20 -9 -37 -12 -28 -6 -33 -4 -33 13 0 22 19 29 108 40 122
14 202 12 209 -5z m-867 -65 c-19 -12 -30 -12 -30 -1 0 10 31 20 40 14 2 -2
-2 -8 -10 -13z m-2540 6 c0 -2 -11 -6 -25 -8 -14 -3 -25 -1 -25 3 0 5 11 9 25
9 14 0 25 -2 25 -4z m2637 -2 c-3 -3 -12 -4 -19 -1 -8 3 -5 6 6 6 11 1 17 -2
13 -5z m716 -17 c7 -9 10 -9 14 1 2 6 16 12 29 12 17 0 24 -6 24 -20 0 -17 -7
-20 -45 -20 -29 0 -45 4 -45 13 0 9 -2 9 -8 0 -4 -7 -16 -12 -27 -12 -37 1
-174 -20 -187 -28 -5 -2 -8 5 -8 17 0 24 32 39 79 38 17 -1 33 1 36 4 11 11
130 7 138 -5z m-2319 -42 c3 -9 0 -15 -8 -15 -8 0 -16 7 -20 15 -3 9 0 15 8
15 8 0 16 -7 20 -15z m-508 -10 c-10 -8 -23 -12 -28 -9 -14 9 2 24 25 24 21
-1 21 -1 3 -15z m274 -10 c16 -19 0 -19 -26 0 -16 12 -16 14 -3 15 9 0 22 -7
29 -15z m50 6 c0 -12 -20 -25 -27 -18 -7 7 6 27 18 27 5 0 9 -4 9 -9z m72 -3
c-17 -8 -26 -8 -34 0 -9 9 -4 12 23 11 32 0 33 -1 11 -11z m58 2 c0 -5 -4 -10
-9 -10 -6 0 -13 5 -16 10 -3 6 1 10 9 10 9 0 16 -4 16 -10z m168 3 c-15 -2
-42 -2 -60 0 -18 2 -6 4 27 4 33 0 48 -2 33 -4z m-422 -14 c4 -7 0 -9 -14 -5
-11 4 -23 2 -27 -4 -9 -15 -25 -12 -25 5 0 18 55 21 66 4z m2574 -16 c14 -6
34 -14 45 -18 20 -6 20 -7 1 -21 -11 -8 -29 -15 -40 -15 -14 -1 -11 -4 9 -8
17 -4 40 -4 53 1 18 6 22 4 22 -12 0 -16 -6 -20 -30 -18 -16 1 -30 7 -30 13 0
5 -4 4 -9 -3 -11 -18 -112 -26 -123 -10 -5 10 -8 8 -8 -4 0 -10 -3 -17 -7 -17
-5 1 -16 1 -27 0 -19 -1 -19 -4 0 -101 4 -18 3 -21 -4 -10 -5 8 -13 34 -17 58
-5 34 -10 41 -20 32 -17 -14 -32 7 -16 23 6 6 11 31 12 57 l1 45 9 -41 10 -41
46 10 c41 10 43 12 24 21 -30 13 -20 31 16 31 22 0 29 4 25 14 -4 10 -1 13 11
8 12 -4 14 -2 10 10 -3 9 -2 14 3 12 5 -3 20 -10 34 -16z m-2300 -35 c0 -12
-93 -6 -97 7 -2 6 11 12 29 13 18 2 34 5 37 7 6 6 31 -15 31 -27z m50 16 c0
-8 -4 -12 -10 -9 -5 3 -10 10 -10 16 0 5 5 9 10 9 6 0 10 -7 10 -16z m98 -4
c10 -16 10 -20 -1 -20 -14 0 -37 20 -37 32 0 16 25 8 38 -12z m-308 -11 c0
-18 -2 -19 -15 -9 -15 12 -12 30 6 30 5 0 9 -10 9 -21z m-1075 -27 l-28 -27
24 31 c13 17 26 30 28 27 3 -2 -8 -16 -24 -31z m985 22 c8 -8 2 -13 -21 -18
-29 -5 -59 6 -59 23 0 11 69 6 80 -5z m-910 -8 c0 -11 -50 -35 -55 -26 -4 6 4
14 17 19 26 11 38 13 38 7z m-120 -31 c-7 -8 -16 -12 -21 -9 -5 3 -18 0 -30
-7 -16 -8 -20 -8 -14 1 8 12 42 28 64 29 11 1 11 -2 1 -14z m3738 -115 l-2
-105 -5 100 c-6 94 -7 100 -28 103 -13 2 -23 9 -23 17 0 11 6 11 30 2 l30 -11
-2 -106z m-3913 80 c-3 -5 -18 -10 -33 -9 l-27 1 25 8 c35 11 42 11 35 0z
m265 6 c0 -3 -15 -14 -32 -26 l-33 -22 28 26 c27 25 37 31 37 22z m1173 -3
c-7 -2 -19 -2 -25 0 -7 3 -2 5 12 5 14 0 19 -2 13 -5z m2644 -15 c-3 -8 -6 -5
-6 6 -1 11 2 17 5 13 3 -3 4 -12 1 -19z m-3882 2 c-3 -5 -12 -10 -18 -10 -7 0
-6 4 3 10 19 12 23 12 15 0z m1172 4 c-3 -3 -12 -4 -19 -1 -8 3 -5 6 6 6 11 1
17 -2 13 -5z m-1222 -20 c-11 -8 -25 -12 -32 -10 -7 3 -13 1 -13 -4 0 -6 -8
-10 -17 -10 -15 0 -13 4 7 20 14 11 36 20 50 19 24 0 24 0 5 -15z m-90 -4 c-3
-5 -16 -15 -28 -21 -22 -12 -22 -12 -3 10 19 21 43 30 31 11z m3474 -22 c-1
-17 -3 -18 -6 -6 -3 11 -17 18 -41 21 l-37 4 43 1 c38 2 42 0 41 -20z m-3539
7 c0 -2 -10 -9 -21 -16 -15 -8 -19 -8 -15 0 11 17 -10 13 -24 -4 -7 -8 -20
-15 -29 -15 -10 0 -5 7 14 20 27 18 75 28 75 15z m2888 -17 c-4 -12 -69 -31
-77 -23 -3 4 57 33 72 34 5 1 7 -5 5 -11z m435 -5 c-13 -2 -35 -2 -50 0 -16 2
-5 4 22 4 28 0 40 -2 28 -4z m-1230 -46 c-3 -20 -10 -37 -14 -37 -12 0 -11 10
2 49 14 41 20 35 12 -12z m1304 1 c-3 -7 -5 -2 -5 12 0 14 2 19 5 13 2 -7 2
-19 0 -25z m1948 14 c-3 -3 -11 0 -18 7 -9 10 -8 11 6 5 10 -3 15 -9 12 -12z
m-4598 -18 c-3 -3 -12 -4 -19 -1 -8 3 -5 6 6 6 11 1 17 -2 13 -5z m-40 -10
c-3 -3 -12 -4 -19 -1 -8 3 -5 6 6 6 11 1 17 -2 13 -5z m3097 -67 c-1 -23 -3
-52 -3 -64 -1 -20 -6 -23 -41 -23 -28 0 -40 -4 -40 -14 0 -22 12 -26 53 -16
20 4 37 5 37 3 0 -10 -35 -32 -51 -33 -22 0 -48 31 -47 55 1 11 -1 32 -5 47
-6 23 -5 27 10 21 17 -5 17 -5 0 8 -10 8 -20 26 -21 40 -2 21 2 25 25 27 23 2
26 -1 22 -18 -4 -13 0 -20 9 -20 22 0 29 11 17 26 -18 21 0 38 21 19 12 -11
16 -28 14 -58z m1226 53 c-8 -5 -28 -9 -45 -9 -30 2 -30 2 5 9 51 11 57 11 40
0z m-2170 -20 c-8 -6 -22 -10 -30 -9 -9 0 -5 6 10 14 27 14 44 10 20 -5z
m1931 5 c1 -16 -16 -16 -36 0 -19 15 -19 15 8 13 15 -2 28 -7 28 -13z m89 5
c0 -5 -13 -10 -30 -10 -16 0 -30 5 -30 10 0 6 14 10 30 10 17 0 30 -4 30 -10z
m40 0 c0 -5 -4 -10 -10 -10 -5 0 -10 5 -10 10 0 6 5 10 10 10 6 0 10 -4 10
-10z m30 0 c0 -5 -2 -10 -4 -10 -3 0 -8 5 -11 10 -3 6 -1 10 4 10 6 0 11 -4
11 -10z m-242 -19 c3 -9 -5 -11 -32 -6 -24 5 -36 3 -36 -4 0 -7 -21 -11 -55
-11 -30 0 -55 4 -55 9 0 20 74 29 85 11 4 -7 11 -8 18 -2 27 22 68 23 75 3z
m-1049 -74 c7 -32 10 -61 8 -64 -6 -6 -23 52 -32 112 -9 58 9 22 24 -48z
m-4002 67 c-3 -3 -12 -4 -19 -1 -8 3 -5 6 6 6 11 1 17 -2 13 -5z m2703 -4 c0
-5 -4 -10 -10 -10 -5 0 -10 5 -10 10 0 6 5 10 10 10 6 0 10 -4 10 -10z m-270
-10 c0 -5 -4 -10 -10 -10 -5 0 -10 5 -10 10 0 6 5 10 10 10 6 0 10 -4 10 -10z
m755 -10 c4 -6 -5 -10 -20 -10 -15 0 -24 4 -20 10 3 6 12 10 20 10 8 0 17 -4
20 -10z m-322 -15 c-1 -5 -14 -11 -28 -13 -19 -3 -24 0 -19 13 7 17 51 17 47
0z m2660 8 c-7 -2 -21 -2 -30 0 -10 3 -4 5 12 5 17 0 24 -2 18 -5z m-2395 -9
c-4 -3 -14 -7 -23 -8 -9 -1 -20 -8 -24 -14 -3 -6 -26 -14 -50 -18 -33 -5 -42
-4 -37 5 4 6 12 9 17 6 15 -10 49 5 49 21 0 10 12 14 37 14 20 0 34 -3 31 -6z
m2319 0 c-3 -3 -12 -4 -19 -1 -8 3 -5 6 6 6 11 1 17 -2 13 -5z m-1732 -14 c-3
-5 -12 -10 -18 -10 -7 0 -6 4 3 10 19 12 23 12 15 0z m1492 -16 c-3 -3 -12 -4
-19 -1 -8 3 -5 6 6 6 11 1 17 -2 13 -5z m-2583 -19 c-7 -17 -20 -20 -28 -6 -7
10 3 21 20 21 8 0 11 -6 8 -15z m306 8 c-1 -28 -21 -37 -87 -35 -99 3 -120 13
-58 28 57 14 145 18 145 7z m2227 1 c-3 -3 -12 -4 -19 -1 -8 3 -5 6 6 6 11 1
17 -2 13 -5z m-887 -20 c0 -8 -4 -12 -10 -9 -5 3 -10 10 -10 16 0 5 5 9 10 9
6 0 10 -7 10 -16z m753 -1 c-7 -2 -21 -2 -30 0 -10 3 -4 5 12 5 17 0 24 -2 18
-5z m-1099 -55 c8 -5 7 -8 -1 -8 -7 0 -17 9 -23 19 -14 27 -12 41 2 16 6 -11
16 -23 22 -27z m949 35 c-7 -2 -19 -2 -25 0 -7 3 -2 5 12 5 14 0 19 -2 13 -5z
m-1859 -19 c5 -12 14 -15 36 -10 17 3 30 2 30 -3 0 -4 11 -6 25 -3 26 5 34
-11 13 -25 -19 -11 -213 -28 -290 -25 -58 2 -68 6 -68 21 0 22 26 31 94 31 38
0 47 -3 43 -14 -4 -10 -1 -13 9 -9 7 3 14 9 14 14 0 5 7 9 15 9 8 0 15 4 15 9
0 9 20 17 46 20 7 0 15 -6 18 -15z m1813 10 c-3 -3 -12 -4 -19 -1 -8 3 -5 6 6
6 11 1 17 -2 13 -5z m-1510 -25 c-9 -6 -40 -11 -68 -11 -27 -1 -52 -5 -55 -10
-8 -13 -26 -9 -18 5 6 10 4 10 -7 0 -17 -17 -29 -16 -29 1 0 15 23 19 140 23
41 1 50 -1 37 -8z m-737 -29 c0 -5 -5 -10 -11 -10 -5 0 -7 -4 -4 -10 3 -5 -1
-10 -9 -10 -19 0 -21 11 -4 28 15 15 28 16 28 2z m-866 -34 c-10 -8 -21 -12
-24 -10 -5 6 21 24 34 24 6 0 1 -6 -10 -14z m954 7 c-10 -2 -26 -2 -35 0 -10
3 -2 5 17 5 19 0 27 -2 18 -5z m-1038 -17 c0 -2 -7 -7 -16 -10 -8 -3 -12 -2
-9 4 6 10 25 14 25 6z m-140 -24 c0 -11 -51 -58 -71 -64 -23 -9 -179 -113
-222 -149 -21 -17 -40 -29 -43 -26 -9 9 7 48 17 42 5 -4 9 -1 9 6 0 6 12 23
28 36 l27 24 -30 -6 -30 -6 29 26 c16 15 36 24 45 22 9 -3 23 -7 31 -9 8 -3
12 -3 8 -1 -15 9 -8 25 8 19 19 -7 120 39 137 64 17 23 57 39 57 22z m160 -24
c0 -18 -2 -20 -9 -8 -6 8 -7 18 -5 22 9 14 14 9 14 -14z m1565 11 c-22 -4 -92
-7 -155 -6 l-115 1 105 6 c58 3 128 6 155 7 l50 1 -40 -9z m253 4 c-26 -2 -71
-2 -100 0 -29 2 -8 3 47 3 55 0 79 -1 53 -3z m-548 -15 c0 -4 -26 -8 -57 -8
-32 0 -96 -3 -143 -6 -47 -4 -81 -3 -77 2 4 4 56 11 115 14 154 8 162 8 162
-2z m-1780 -14 c0 -4 -10 -15 -22 -25 -29 -26 -7 -24 26 2 18 14 31 18 37 12
12 -12 1 -21 -66 -58 -27 -16 -52 -31 -55 -34 -3 -3 -14 -13 -24 -21 -16 -12
-18 -12 -11 -1 6 11 4 13 -11 8 -113 -37 -154 -53 -154 -60 0 -5 -8 -16 -17
-25 -15 -16 -16 -15 -9 11 7 29 -2 35 -22 15 -6 -6 -14 -9 -18 -6 -11 11 72
59 90 52 12 -5 15 -2 9 12 -5 14 -3 16 11 11 10 -4 15 -3 11 3 -3 6 6 15 21
20 15 6 25 13 22 16 -10 10 -61 -18 -175 -93 -151 -101 -152 -101 -134 -80 7
10 31 27 52 39 53 29 54 57 2 30 -70 -37 -193 -85 -200 -78 -3 3 -1 6 5 6 19
0 82 44 82 56 0 7 11 15 25 18 22 6 27 12 24 32 0 4 5 11 13 15 10 7 9 9 -4 9
-10 0 -18 -4 -18 -9 0 -5 -8 -11 -17 -14 -15 -5 -52 -26 -135 -77 -32 -19 -19
2 29 46 26 24 48 44 50 44 2 0 25 15 52 33 66 46 111 64 120 48 5 -8 15 -9 32
-3 32 12 209 11 209 -1 0 -6 5 -5 13 1 6 5 33 13 59 17 26 4 55 13 65 21 19
14 33 18 33 8z m1423 -11 c-7 -2 -21 -2 -30 0 -10 3 -4 5 12 5 17 0 24 -2 18
-5z m-1344 -32 c-13 -11 -27 -20 -31 -21 -5 0 -16 -7 -25 -15 -63 -55 -78 -65
-93 -65 -10 0 -23 -7 -30 -15 -14 -17 -30 -20 -30 -5 0 5 14 17 32 26 17 9 39
24 50 33 10 10 31 24 46 32 15 8 29 16 32 19 10 10 65 37 69 34 2 -2 -7 -12
-20 -23z m-1089 -52 c-163 -89 -275 -145 -220 -109 10 6 11 10 3 10 -7 0 -13
5 -13 11 0 6 8 8 18 5 13 -4 18 -1 18 13 0 21 -5 20 -53 -16 -35 -25 -132 -45
-119 -24 4 6 13 11 19 10 34 -4 72 23 64 46 -3 7 15 20 44 33 39 16 49 17 49
6 0 -8 5 -14 11 -14 5 0 8 -4 4 -10 -7 -12 54 8 75 25 23 17 91 44 125 48 17
2 35 5 40 5 6 1 -24 -17 -65 -39z m169 -10 c-7 -4 -18 -5 -24 -2 -5 4 -7 2 -2
-2 9 -10 -122 -84 -248 -140 -33 -14 -73 -33 -88 -42 -16 -8 -31 -13 -33 -10
-3 3 21 17 53 32 103 48 242 121 258 136 13 12 -2 11 -27 -2 -13 -7 -24 -7
-30 -1 -8 8 81 59 132 74 19 6 27 -32 9 -43z m1204 14 c-5 -15 -4 -16 8 -7 8
6 21 14 30 17 28 10 11 -26 -19 -41 -35 -16 -43 -15 -35 6 4 10 -7 4 -27 -15
-39 -38 -50 -41 -43 -13 3 11 9 20 13 20 4 0 18 11 31 25 28 29 51 33 42 8z
m-1512 -14 c-13 -11 -26 -17 -29 -14 -7 6 29 34 43 34 6 0 -1 -9 -14 -20z
m379 -7 c0 -10 -84 -57 -120 -67 -19 -5 -16 -1 14 20 67 48 106 64 106 47z
m150 -2 c-8 -5 -19 -10 -25 -10 -5 0 -3 5 5 10 8 5 20 10 25 10 6 0 3 -5 -5
-10z m640 -15 c-7 -8 -18 -15 -24 -15 -6 0 -2 7 8 15 25 19 32 19 16 0z m94
-39 c-10 -8 -21 -12 -23 -10 -3 2 4 11 15 18 10 8 21 12 23 10 3 -2 -4 -11
-15 -18z m66 20 c0 -2 -12 -11 -27 -20 l-28 -17 24 20 c23 21 31 25 31 17z
m-1790 -30 c0 -2 -7 -7 -16 -10 -8 -3 -12 -2 -9 4 6 10 25 14 25 6z m1690 -15
c0 -5 -7 -11 -14 -14 -10 -4 -13 -1 -9 9 6 15 23 19 23 5z m-1744 -16 c-11 -8
-27 -15 -35 -15 -9 1 -2 7 14 15 39 18 44 18 21 0z m54 -15 c-44 -30 -77 -40
-65 -20 4 6 11 8 16 5 5 -4 9 -2 9 3 0 10 57 41 75 42 6 0 -10 -14 -35 -30z
m1765 20 c-3 -5 -12 -10 -18 -10 -7 0 -6 4 3 10 19 12 23 12 15 0z m-467 -28
c2 -7 -3 -12 -12 -12 -9 0 -16 -7 -16 -16 0 -11 -5 -14 -17 -10 -9 4 -19 3
-22 -1 -9 -12 -81 -44 -81 -35 0 10 88 62 105 62 8 0 15 7 15 16 0 17 22 14
28 -4z m417 -11 c-3 -6 -11 -11 -17 -11 -6 0 -6 6 2 15 14 17 26 13 15 -4z
m-1475 -1 c0 -5 -7 -10 -15 -10 -8 0 -15 5 -15 10 0 6 7 10 15 10 8 0 15 -4
15 -10z m324 -14 c-10 -8 -21 -12 -24 -10 -5 6 21 24 34 24 6 0 1 -6 -10 -14z
m396 -6 c0 -5 -2 -10 -4 -10 -3 0 -8 5 -11 10 -3 6 -1 10 4 10 6 0 11 -4 11
-10z m-1020 -10 c0 -5 -17 -14 -37 -19 -55 -16 -62 -13 -28 8 33 21 65 27 65
11z m1394 -25 c-26 -19 -31 -9 -8 16 11 12 20 16 22 9 2 -6 -4 -17 -14 -25z
m-391 8 c-15 -5 -18 -33 -4 -33 6 0 13 5 16 10 10 16 27 12 18 -4 -14 -25
-103 -86 -124 -86 -12 0 -23 -8 -26 -18 -2 -10 -19 -24 -36 -30 -28 -11 -34
-10 -47 7 -8 11 -26 21 -40 24 -18 3 -15 5 13 6 20 0 37 -3 37 -8 0 -5 9 -7
20 -4 10 3 18 10 17 15 -1 6 12 18 30 27 17 9 42 33 54 53 22 36 36 45 69 46
10 0 11 -1 3 -5z m712 -13 c-3 -5 -12 -10 -18 -10 -7 0 -6 4 3 10 19 12 23 12
15 0z m778 -25 c-3 -9 -8 -14 -10 -11 -3 3 -2 9 2 15 9 16 15 13 8 -4z m-693
-15 c0 -6 -8 -14 -17 -17 -10 -4 -21 -11 -25 -17 -4 -6 -10 -8 -13 -4 -8 8 26
46 43 47 6 1 12 -4 12 -9z m-95 -10 c-3 -5 -16 -15 -28 -21 l-22 -12 20 21
c21 22 41 30 30 12z m731 -12 c4 -6 2 -14 -4 -16 -7 -2 -12 -11 -13 -20 0 -11
-2 -12 -6 -4 -2 6 -11 12 -19 12 -12 0 -12 4 -2 20 14 22 33 26 44 8z m-1347
-1 c-2 -2 -22 -14 -44 -26 l-40 -23 30 26 c17 14 36 26 44 26 8 0 12 -1 10 -3z
m1147 -26 c-10 -11 -15 -24 -11 -30 3 -7 0 -8 -9 -5 -21 8 -20 13 6 35 28 25
36 24 14 0z m-1429 -7 c-3 -3 -12 -4 -19 -1 -8 3 -5 6 6 6 11 1 17 -2 13 -5z
m1603 -33 c0 -5 -7 -11 -15 -15 -15 -5 -20 5 -8 17 9 10 23 9 23 -2z m-1700
-6 c0 -2 -21 -17 -47 -32 -27 -15 -50 -30 -53 -33 -3 -3 -13 -11 -22 -19 -15
-11 -18 -11 -18 1 0 8 10 20 23 26 12 6 42 23 67 37 47 27 50 28 50 20z m1620
-3 c0 -4 -23 -30 -51 -57 -36 -35 -48 -42 -39 -25 23 47 90 108 90 82z m-1730
-7 c0 -2 -10 -9 -22 -15 -22 -11 -22 -10 -4 4 21 17 26 19 26 11z m185 -7 c32
-14 31 -20 -2 -35 -29 -14 -46 -8 -23 8 13 8 12 12 -4 24 -24 18 -7 20 29 3z
m-35 -12 c0 -11 -19 -15 -25 -6 -3 5 1 10 9 10 9 0 16 -2 16 -4z m105 -7 c7
-11 -32 -59 -48 -59 -5 0 -21 -8 -35 -19 -46 -31 -182 -101 -182 -92 0 4 12
14 28 22 38 20 94 56 112 72 8 8 34 26 58 41 23 14 42 31 42 36 0 13 17 13 25
-1z m437 -21 c-7 -7 -12 -8 -12 -2 0 14 12 26 19 19 2 -3 -1 -11 -7 -17z
m-582 3 c0 -10 -39 -41 -51 -41 -3 0 -6 7 -6 15 0 8 9 15 19 15 11 0 16 5 13
10 -3 6 1 10 9 10 9 0 16 -4 16 -9z m513 -10 c-25 -24 -88 -57 -78 -41 8 13
76 59 89 59 6 1 1 -8 -11 -18z m257 -1 c0 -5 -5 -10 -11 -10 -5 0 -7 5 -4 10
3 6 8 10 11 10 2 0 4 -4 4 -10z m1279 -22 c-8 -14 -14 -18 -17 -10 -4 13 17
46 25 38 3 -2 -1 -15 -8 -28z m-2138 -19 c-13 -11 -27 -17 -30 -13 -7 7 28 34
43 34 6 -1 0 -10 -13 -21z m659 -29 c-32 -28 -38 -25 -10 5 13 14 26 23 28 20
3 -3 -5 -14 -18 -25z m200 11 c0 -5 -9 -13 -20 -16 -11 -4 -35 -20 -52 -36
-18 -16 -36 -29 -41 -29 -18 0 1 26 42 58 42 31 71 41 71 23z m-119 -13 c0
-10 2 -10 6 0 2 6 9 12 15 12 7 0 6 -5 -1 -14 -7 -8 -21 -12 -31 -9 -14 4 -20
0 -20 -11 0 -9 -4 -16 -10 -16 -5 0 -7 -7 -4 -14 4 -11 -1 -14 -22 -13 -41 3
-40 23 3 51 43 28 63 32 64 14z m-806 -18 c-3 -5 -16 -15 -28 -21 -22 -12 -22
-12 -3 10 19 21 43 30 31 11z m1275 0 c0 -5 -5 -10 -11 -10 -5 0 -7 5 -4 10 3
6 8 10 11 10 2 0 4 -4 4 -10z m-357 -44 c-21 -19 -42 -35 -48 -35 -5 0 10 18
34 40 24 21 46 37 48 35 3 -2 -13 -20 -34 -40z m332 4 c3 -5 1 -10 -4 -10 -6
0 -11 5 -11 10 0 6 2 10 4 10 3 0 8 -4 11 -10z m-1351 -34 c-10 -8 -21 -12
-23 -10 -3 2 4 11 15 18 10 8 21 12 23 10 3 -2 -4 -11 -15 -18z m577 -7 c-34
-28 -49 -23 -15 6 15 13 31 22 34 19 3 -3 -6 -14 -19 -25z m269 21 c0 -5 -10
-19 -22 -31 l-23 -21 23 11 c12 6 22 16 22 21 0 6 7 10 15 10 8 0 15 5 15 10
0 6 5 10 10 10 21 0 8 -16 -40 -47 -31 -20 -52 -29 -56 -22 -4 7 -15 2 -30
-12 -19 -18 -27 -20 -37 -10 -9 10 -8 11 6 6 9 -4 18 -2 18 4 1 6 2 16 3 21 1
8 59 44 94 59 1 1 2 -3 2 -9z m285 0 c-3 -5 -12 -10 -18 -10 -7 0 -6 4 3 10
19 12 23 12 15 0z m-1085 -30 c0 -5 -5 -10 -11 -10 -5 0 -7 5 -4 10 3 6 8 10
11 10 2 0 4 -4 4 -10z m630 -20 c-14 -11 -29 -20 -35 -20 -5 0 1 9 15 20 14
11 30 20 35 20 6 0 -1 -9 -15 -20z m1941 -7 c-12 -20 -14 -14 -5 12 4 9 9 14
11 11 3 -2 0 -13 -6 -23z m-2081 -8 c0 -18 -3 -17 40 -5 l35 10 -45 -40 c-51
-46 -110 -84 -110 -70 0 5 9 11 19 15 11 3 25 13 33 22 11 14 10 15 -10 9 -19
-6 -22 -4 -22 19 0 22 3 25 22 20 16 -6 20 -4 15 8 -6 16 0 27 15 27 4 0 8 -7
8 -15z m210 -52 c0 -9 -54 -55 -89 -76 -38 -22 -41 -7 -5 19 15 10 38 29 53
41 26 23 41 28 41 16z"/>
<path d="M2355 5957 c-14 -24 -25 -47 -25 -50 0 -4 85 -7 190 -7 l189 0 31 44
c16 25 30 47 30 50 0 3 -88 6 -195 6 l-194 0 -26 -43z"/>
<path d="M2734 5813 l-120 -188 -133 -3 -133 -3 25 43 25 43 86 3 86 3 25 39
c14 22 25 44 25 50 0 6 -64 10 -179 10 l-179 0 -26 -44 c-14 -25 -26 -47 -26
-50 0 -3 18 -6 40 -6 l40 0 -55 -85 c-30 -47 -55 -89 -55 -95 0 -6 86 -10 243
-10 l242 0 95 150 94 150 33 -53 32 -52 -28 -3 c-21 -2 -37 -14 -55 -42 -14
-22 -26 -42 -26 -45 0 -3 38 -5 85 -5 l85 0 31 -50 31 -50 54 0 c30 0 54 3 54
6 0 6 -228 372 -275 442 l-22 32 -119 -187z"/>
<path d="M2169 5443 c-7 -17 -7 -38 -2 -53 7 -20 17 -26 53 -30 40 -4 45 -8
45 -30 0 -20 -6 -26 -28 -28 -18 -2 -29 2 -33 12 -3 9 -15 16 -25 16 -22 0
-22 0 -9 -34 9 -24 15 -26 64 -26 59 0 66 7 66 65 0 39 -14 52 -60 57 -27 2
-35 7 -35 23 0 26 52 35 61 11 8 -20 34 -21 34 -2 0 38 -12 46 -66 46 -50 0
-55 -2 -65 -27z"/>
<path d="M2346 5448 c-4 -20 -4 -45 2 -150 3 -43 32 -36 32 7 0 32 2 35 31 35
51 0 69 16 69 60 0 65 -5 70 -71 70 -53 0 -59 -2 -63 -22z m99 -28 c9 -28 -2
-40 -36 -40 -26 0 -29 3 -29 30 0 27 3 30 29 30 21 0 32 -6 36 -20z"/>
<path d="M2532 5458 c-7 -7 -12 -42 -12 -88 0 -46 5 -81 12 -88 7 -7 33 -12
60 -12 58 0 68 14 68 100 0 86 -10 100 -68 100 -27 0 -53 -5 -60 -12z m86 -85
c-3 -66 -4 -68 -30 -71 l-28 -3 0 70 0 71 30 0 31 0 -3 -67z"/>
<path d="M2700 5370 c0 -93 1 -100 20 -100 17 0 20 7 20 40 0 29 4 40 15 40 8
0 22 -18 31 -40 11 -27 22 -40 35 -40 23 0 23 -1 4 44 -14 33 -14 38 0 52 17
18 20 57 5 85 -9 15 -22 19 -70 19 l-60 0 0 -100z m95 40 c0 -20 -6 -26 -27
-28 -25 -3 -28 0 -28 28 0 28 3 31 28 28 21 -2 27 -8 27 -28z"/>
<path d="M2860 5455 c0 -9 9 -15 25 -15 25 0 25 -1 25 -85 0 -78 2 -85 20 -85
18 0 20 7 20 85 0 84 0 85 25 85 16 0 25 6 25 15 0 12 -14 15 -70 15 -56 0
-70 -3 -70 -15z"/>
<path d="M3034 5457 c-3 -8 -4 -32 -2 -53 3 -38 4 -39 48 -44 40 -4 45 -8 45
-30 0 -20 -6 -26 -28 -28 -18 -2 -29 2 -33 12 -8 20 -34 21 -34 2 0 -38 12
-46 65 -46 60 0 67 6 67 56 0 45 -15 62 -60 66 -29 2 -37 7 -37 23 0 26 52 35
61 11 11 -28 36 -19 32 12 -3 26 -6 27 -61 30 -43 2 -59 -1 -63 -11z"/>
<path d="M9508 5863 c-72 -67 -98 -93 -98 -98 0 -3 16 -5 36 -5 30 0 46 9 85
45 26 25 54 45 61 45 6 0 -3 -11 -21 -24 -18 -14 -40 -34 -48 -45 -14 -20 -13
-21 25 -21 23 0 45 6 52 15 9 11 34 15 94 15 78 0 84 2 111 30 l28 29 -109 4
-109 3 114 2 c92 2 118 5 135 20 20 16 20 16 6 -2 -8 -11 -34 -38 -57 -60 -24
-23 -43 -44 -43 -48 0 -5 19 -8 43 -8 40 0 47 5 117 75 l74 75 -222 0 -223 0
-51 -47z"/>
<path d="M9407 5693 c-4 -3 -7 -25 -6 -47 0 -35 2 -38 9 -18 12 29 60 31 67 2
7 -28 59 -28 68 0 4 12 1 27 -5 35 -14 17 -46 20 -55 5 -3 -5 -19 -10 -35 -10
-16 0 -32 5 -35 10 -4 6 5 10 19 10 14 0 26 5 26 10 0 11 -43 14 -53 3z m123
-48 c0 -18 -5 -25 -20 -25 -15 0 -20 7 -20 25 0 18 5 25 20 25 15 0 20 -7 20
-25z"/>
<path d="M9937 5665 c4 -26 2 -40 -8 -46 -10 -6 -3 -9 21 -9 19 0 30 4 23 8
-6 4 -13 23 -15 41 -2 19 -8 36 -15 38 -9 3 -10 -6 -6 -32z"/>
<path d="M9800 5656 c0 -19 5 -38 10 -41 6 -4 10 10 10 34 0 23 -4 41 -10 41
-5 0 -10 -15 -10 -34z"/>
<path d="M9564 5666 c-3 -8 -4 -25 -1 -38 3 -18 5 -16 6 9 1 21 7 33 19 36 16
4 16 5 -1 6 -10 0 -20 -5 -23 -13z"/>
<path d="M9611 5643 c1 -36 2 -37 8 -8 3 17 13 30 21 30 8 0 18 -13 21 -30 l7
-30 1 33 c1 41 23 39 33 -4 6 -27 6 -27 5 6 -2 34 -3 35 -49 38 l-48 3 1 -38z"/>
<path d="M9732 5648 c-2 -36 0 -38 28 -38 28 0 30 2 28 38 -1 36 -1 36 -5 5
-3 -24 -9 -33 -23 -33 -14 0 -20 9 -23 33 -4 31 -4 31 -5 -5z"/>
<path d="M9843 5674 c21 -7 22 -20 2 -28 -28 -10 -17 -36 16 -36 28 0 30 2 27
33 -3 28 -7 32 -33 34 -16 1 -22 -1 -12 -3z m37 -39 c0 -9 -9 -15 -21 -15 -18
0 -19 2 -9 15 7 8 16 15 21 15 5 0 9 -7 9 -15z"/>
<path d="M9405 5520 c4 -6 115 -10 300 -10 185 0 296 4 300 10 4 7 -98 10
-300 10 -202 0 -304 -3 -300 -10z"/>
<path d="M9400 5400 c0 -38 2 -40 30 -40 17 0 30 5 30 10 0 6 -9 10 -20 10
-16 0 -20 7 -20 30 0 17 -4 30 -10 30 -5 0 -10 -18 -10 -40z"/>
<path d="M9470 5407 c0 -34 7 -50 19 -42 10 6 0 75 -10 75 -5 0 -9 -15 -9 -33z"/>
<path d="M9514 5426 c-3 -8 -4 -25 -2 -38 2 -18 10 -24 36 -26 18 -2 32 1 32
7 0 6 -11 11 -25 11 -18 0 -25 5 -25 20 0 13 7 20 19 20 11 0 23 5 26 10 4 6
-7 10 -25 10 -17 0 -33 -6 -36 -14z"/>
<path d="M9590 5400 c0 -38 2 -40 30 -40 35 0 40 17 8 23 l-23 4 23 2 c12 0
22 5 22 10 0 5 -10 12 -22 14 l-23 4 23 2 c33 2 27 21 -8 21 -28 0 -30 -2 -30
-40z"/>
<path d="M9670 5400 c0 -22 5 -40 10 -40 6 0 10 12 10 28 l1 27 15 -27 c8 -16
21 -28 28 -28 15 0 24 33 18 63 -6 27 -22 20 -23 -10 l-1 -28 -10 28 c-6 16
-17 27 -29 27 -16 0 -19 -7 -19 -40z"/>
<path d="M9770 5422 c0 -11 10 -24 23 -30 l22 -11 -22 0 c-34 -1 -28 -21 6
-21 37 0 47 25 18 45 -18 12 -19 15 -4 15 9 0 17 5 17 10 0 6 -13 10 -30 10
-23 0 -30 -5 -30 -18z"/>
<path d="M9850 5400 c0 -38 2 -40 30 -40 35 0 40 17 8 23 l-23 4 23 2 c12 0
22 5 22 10 0 5 -10 12 -22 14 l-23 4 23 2 c33 2 27 21 -8 21 -28 0 -30 -2 -30
-40z"/>
<path d="M9930 5400 c0 -37 2 -40 29 -40 36 0 55 22 47 55 -5 21 -12 25 -41
25 -34 0 -35 -1 -35 -40z m55 0 c0 -8 -8 -16 -17 -18 -13 -2 -18 3 -18 18 0
15 5 20 18 18 9 -2 17 -10 17 -18z"/>
<path d="M9413 5333 c-15 -5 -18 -73 -3 -73 6 0 10 4 10 9 0 5 10 11 23 13 14
2 23 11 25 26 2 12 0 22 -5 23 -4 0 -15 2 -23 3 -8 2 -21 1 -27 -1z m37 -23
c0 -5 -7 -10 -15 -10 -8 0 -15 5 -15 10 0 6 7 10 15 10 8 0 15 -4 15 -10z"/>
<path d="M9483 5324 c-7 -20 1 -65 12 -63 6 0 9 5 8 10 -4 14 9 11 30 -8 19
-17 19 -17 13 5 -5 13 -3 22 3 22 12 0 15 39 4 42 -33 6 -66 3 -70 -8z m57
-14 c0 -5 -7 -10 -15 -10 -8 0 -15 5 -15 10 0 6 7 10 15 10 8 0 15 -4 15 -10z"/>
<path d="M9588 5329 c-24 -14 -23 -56 2 -69 30 -16 60 4 60 39 0 38 -27 51
-62 30z m42 -28 c0 -11 -5 -23 -11 -27 -15 -9 -33 12 -26 30 9 23 37 20 37 -3z"/>
<path d="M9672 5298 c3 -41 5 -43 32 -41 63 5 61 66 -2 78 l-33 5 3 -42z m48
-3 c0 -16 -6 -25 -15 -25 -9 0 -15 9 -15 25 0 16 6 25 15 25 9 0 15 -9 15 -25z"/>
<path d="M9816 5333 c-3 -3 -6 -19 -6 -35 0 -18 -5 -28 -15 -28 -10 0 -15 10
-15 30 0 17 -4 30 -10 30 -5 0 -10 -16 -10 -35 0 -29 4 -36 26 -41 31 -8 44 3
50 44 5 29 -6 48 -20 35z"/>
<path d="M9880 5331 c-37 -10 -41 -57 -5 -71 15 -6 32 -7 38 -3 7 4 2 9 -13
13 -16 4 -25 13 -25 25 0 12 9 21 25 25 14 3 20 8 15 11 -6 3 -21 3 -35 0z"/>
<path d="M9930 5329 c0 -4 7 -9 15 -13 9 -3 15 -18 15 -36 0 -18 4 -29 10 -25
6 3 10 19 10 36 0 20 5 29 17 29 9 0 13 3 10 7 -9 9 -77 11 -77 2z"/>
<path d="M6493 5335 c-38 -16 -49 -54 -29 -94 25 -47 80 -50 116 -7 28 35 5
97 -39 109 -10 2 -32 -1 -48 -8z m65 -60 c-2 -45 -13 -59 -24 -30 -4 8 -10 15
-15 15 -5 0 -9 -7 -9 -15 0 -8 -4 -15 -10 -15 -5 0 -10 20 -10 45 0 45 0 45
35 45 l35 0 -2 -45z"/>
<path d="M6510 5296 c0 -9 7 -16 16 -16 9 0 14 5 12 12 -6 18 -28 21 -28 4z"/>
<path d="M4732 4660 c0 -19 2 -27 5 -17 2 9 2 25 0 35 -3 9 -5 1 -5 -18z"/>
<path d="M4802 4590 c0 -14 2 -19 5 -12 2 6 2 18 0 25 -3 6 -5 1 -5 -13z"/>
<path d="M4532 4540 c0 -14 2 -19 5 -12 2 6 2 18 0 25 -3 6 -5 1 -5 -13z"/>
<path d="M4504 4455 c0 -49 1 -71 3 -48 2 23 2 64 0 90 -2 26 -3 8 -3 -42z"/>
<path d="M4773 4325 c0 -22 2 -30 4 -17 2 12 2 30 0 40 -3 9 -5 -1 -4 -23z"/>
<path d="M4170 3908 c0 -25 14 -37 26 -24 9 10 7 16 -7 24 -15 10 -19 9 -19 0z"/>
<path d="M4145 3820 c3 -5 8 -10 11 -10 2 0 4 5 4 10 0 6 -5 10 -11 10 -5 0
-7 -4 -4 -10z"/>
<path d="M8375 2860 c-3 -5 -1 -10 4 -10 6 0 11 5 11 10 0 6 -2 10 -4 10 -3 0
-8 -4 -11 -10z"/>
<path d="M7656 2885 c-3 -9 0 -15 9 -15 8 0 15 7 15 15 0 8 -4 15 -9 15 -5 0
-11 -7 -15 -15z"/>
<path d="M7450 2770 c-9 -6 -10 -10 -3 -10 6 0 15 5 18 10 8 12 4 12 -15 0z"/>
<path d="M8308 2693 c6 -2 18 -2 25 0 6 3 1 5 -13 5 -14 0 -19 -2 -12 -5z"/>
<path d="M8788 2343 c-36 -5 -38 -34 -3 -31 14 1 25 6 25 10 0 5 19 6 43 2 28
-3 37 -2 27 4 -21 13 -60 19 -92 15z"/>
<path d="M8825 2259 c-14 -6 -8 -8 23 -7 24 1 45 5 48 9 6 10 -46 8 -71 -2z"/>
<path d="M4358 2563 c7 -3 16 -2 19 1 4 3 -2 6 -13 5 -11 0 -14 -3 -6 -6z"/>
<path d="M4225 2540 c-8 -13 5 -13 25 0 13 8 13 10 -2 10 -9 0 -20 -4 -23 -10z"/>
<path d="M4088 2493 c6 -2 18 -2 25 0 6 3 1 5 -13 5 -14 0 -19 -2 -12 -5z"/>
<path d="M5988 2133 c12 -2 32 -2 45 0 12 2 2 4 -23 4 -25 0 -35 -2 -22 -4z"/>
<path d="M5718 2098 c-37 -13 -36 -28 1 -28 39 0 61 9 61 26 0 16 -23 17 -62
2z"/>
<path d="M5950 2100 c0 -12 44 -12 80 0 20 6 14 8 -27 9 -29 1 -53 -3 -53 -9z"/>
<path d="M2630 1887 c0 -9 10 -12 30 -9 35 5 30 22 -6 22 -13 0 -24 -6 -24
-13z"/>
<path d="M2888 1883 c6 -2 18 -2 25 0 6 3 1 5 -13 5 -14 0 -19 -2 -12 -5z"/>
<path d="M2909 1853 c-13 -16 -12 -17 4 -4 16 13 21 21 13 21 -2 0 -10 -8 -17
-17z"/>
<path d="M2870 1826 c0 -2 7 -6 15 -10 8 -3 15 -1 15 4 0 6 -7 10 -15 10 -8 0
-15 -2 -15 -4z"/>
<path d="M5956 1852 c-3 -6 -24 -9 -45 -7 -23 2 -47 -2 -58 -10 -16 -12 -9
-13 52 -8 39 3 71 6 72 7 1 1 -2 8 -6 15 -6 8 -11 9 -15 3z"/>
<path d="M2780 1650 c0 -5 5 -10 10 -10 6 0 10 5 10 10 0 6 -4 10 -10 10 -5 0
-10 -4 -10 -10z"/>
<path d="M2733 1620 c-1 -11 3 -23 9 -26 7 -4 8 -2 4 4 -4 7 -3 12 2 12 6 0
12 7 16 15 3 10 -1 15 -12 15 -11 0 -18 -8 -19 -20z"/>
<path d="M2762 1442 c-12 -2 -20 -7 -18 -11 6 -9 86 -1 86 9 0 8 -28 9 -68 2z"/>
<path d="M3618 1513 c6 -2 18 -2 25 0 6 3 1 5 -13 5 -14 0 -19 -2 -12 -5z"/>
<path d="M4708 1073 c7 -3 16 -2 19 1 4 3 -2 6 -13 5 -11 0 -14 -3 -6 -6z"/>
<path d="M3127 875 c3 -8 9 -12 14 -9 12 7 11 11 -5 17 -10 4 -13 1 -9 -8z"/>
<path d="M1774 825 c-18 -13 -18 -14 4 -8 12 3 25 9 28 14 8 14 -10 11 -32 -6z"/>
<path d="M2118 843 c7 -3 16 -2 19 1 4 3 -2 6 -13 5 -11 0 -14 -3 -6 -6z"/>
<path d="M8248 4903 c7 -3 16 -2 19 1 4 3 -2 6 -13 5 -11 0 -14 -3 -6 -6z"/>
<path d="M8244 4705 c10 -222 27 -397 42 -430 13 -28 161 -172 168 -164 2 2 6
22 9 45 7 39 5 42 -53 98 -33 31 -60 64 -60 74 0 12 4 9 14 -9 14 -27 85 -98
99 -99 15 0 6 78 -12 101 -21 27 -39 106 -50 214 -6 60 -4 72 6 63 10 -8 13 0
13 40 0 50 0 50 -72 113 -40 35 -81 70 -92 78 -18 16 -18 12 -12 -124z m96
-50 c11 -13 10 -14 -4 -9 -9 3 -16 10 -16 15 0 13 6 11 20 -6z m-13 -102 c-3
-10 -5 -4 -5 12 0 17 2 24 5 18 2 -7 2 -21 0 -30z m10 -90 c-3 -10 -5 -4 -5
12 0 17 2 24 5 18 2 -7 2 -21 0 -30z m10 -95 c-2 -13 -4 -3 -4 22 0 25 2 35 4
23 2 -13 2 -33 0 -45z"/>
<path d="M5118 4183 c7 -3 16 -2 19 1 4 3 -2 6 -13 5 -11 0 -14 -3 -6 -6z"/>
<path d="M5675 3830 c-3 -5 1 -20 10 -33 8 -13 12 -27 9 -30 -4 -4 2 -10 12
-14 10 -3 23 -12 27 -20 6 -9 20 -11 50 -7 51 8 53 10 37 29 -7 8 -10 21 -7
28 4 10 -3 14 -26 13 -27 0 -32 3 -31 22 0 19 -5 22 -37 22 -21 0 -41 -4 -44
-10z"/>
<path d="M5834 3827 c-8 -9 -4 -17 18 -34 18 -13 25 -24 18 -28 -6 -4 -18 -1
-27 7 -15 11 -16 11 -10 -5 4 -10 7 -23 7 -29 0 -6 15 -8 34 -6 27 3 33 1 29
-12 -3 -8 1 -7 8 4 10 16 9 21 -4 31 -18 13 -17 47 2 53 17 6 -19 31 -44 31
-11 0 -25 -5 -31 -12z"/>
<path d="M5480 3809 c0 -5 5 -7 10 -4 6 3 10 8 10 11 0 2 -4 4 -10 4 -5 0 -10
-5 -10 -11z"/>
<path d="M5577 3789 c4 -13 8 -18 11 -10 2 7 -1 18 -6 23 -8 8 -9 4 -5 -13z"/>
<path d="M5527 3780 c-3 -14 -2 -26 3 -28 6 -2 10 -11 10 -19 0 -9 2 -14 5
-11 3 3 2 23 -3 44 -7 36 -9 37 -15 14z"/>
<path d="M6420 3786 c0 -21 21 -31 31 -15 5 8 3 17 -4 21 -18 12 -27 10 -27
-6z"/>
<path d="M5430 3781 c0 -5 6 -23 14 -41 13 -31 13 -31 19 -9 12 43 8 59 -13
59 -11 0 -20 -4 -20 -9z"/>
<path d="M5155 3771 c-8 -14 6 -41 21 -41 8 0 14 10 14 23 0 18 2 19 11 7 8
-12 10 -12 7 -1 -5 16 -44 25 -53 12z"/>
<path d="M5100 3743 c0 -12 -4 -23 -10 -23 -6 0 -10 -30 -10 -69 0 -62 2 -70
19 -68 15 1 17 6 10 29 -4 16 -4 30 2 34 5 3 7 15 3 26 -4 15 -3 18 6 13 18
-11 30 16 17 39 -6 12 -10 26 -9 32 1 6 -5 11 -13 11 -9 0 -15 -10 -15 -24z"/>
<path d="M5010 3708 c0 -38 1 -41 16 -27 10 11 13 24 8 42 -10 41 -24 32 -24
-15z"/>
<path d="M8128 3732 c-22 -4 -29 -27 -18 -57 7 -17 6 -25 -1 -25 -8 0 -8 -4
-1 -12 6 -7 13 -60 16 -118 7 -117 15 -215 21 -245 4 -17 12 -20 52 -19 26 1
54 2 61 3 15 1 16 105 2 257 -6 60 -12 125 -14 143 -2 23 -11 40 -25 50 -18
11 -21 11 -19 1 2 -8 -5 -15 -14 -18 -12 -2 -16 2 -13 16 4 21 -16 31 -47 24z"/>
<path d="M6415 3689 c-4 -6 -5 -12 -2 -15 2 -3 7 2 10 11 7 17 1 20 -8 4z"/>
<path d="M5024 3610 c3 -67 16 -77 16 -12 0 28 -4 53 -9 56 -5 3 -8 -16 -7
-44z"/>
<path d="M8088 3610 c-4 -8 -14 -40 -24 -70 -9 -30 -21 -60 -26 -67 -5 -6 -7
-39 -3 -72 4 -38 2 -61 -4 -61 -5 0 -10 -8 -10 -17 -1 -10 -2 -31 -3 -47 -3
-26 0 -30 22 -29 74 1 80 3 80 23 0 23 -10 26 -28 8 -9 -9 -11 -4 -9 20 1 20
8 33 20 36 16 4 18 12 11 78 -3 40 -13 80 -20 89 -10 11 -11 18 -3 26 6 6 9
30 7 54 -2 25 -6 37 -10 29z"/>
<path d="M6908 3599 c-10 -5 -18 -16 -18 -24 0 -19 21 -30 29 -17 6 10 32 18
64 21 5 1 5 6 2 11 -4 6 -11 8 -16 5 -5 -4 -9 -1 -9 4 0 14 -29 14 -52 0z"/>
<path d="M7591 3433 c1 -15 5 -39 9 -53 7 -20 8 -16 9 22 1 26 -3 50 -9 53 -6
4 -10 -6 -9 -22z"/>
<path d="M7522 3370 c0 -50 3 -59 20 -63 17 -5 19 -2 14 16 -3 12 -6 38 -6 58
0 22 -6 39 -14 42 -11 4 -14 -7 -14 -53z"/>
<path d="M4648 3370 c2 -8 7 -23 9 -32 8 -26 21 -22 21 7 0 14 -6 25 -13 25
-8 0 -15 3 -18 8 -2 4 -2 0 1 -8z"/>
<path d="M7535 3260 c-3 -5 1 -10 9 -10 9 0 16 5 16 10 0 6 -4 10 -9 10 -6 0
-13 -4 -16 -10z"/>
<path d="M8566 3213 c-3 -3 -6 -16 -5 -27 0 -12 3 -15 6 -8 2 6 9 10 14 6 5
-3 9 2 9 10 0 17 -14 29 -24 19z"/>
<path d="M4665 3169 c6 -58 15 -62 15 -6 0 26 -4 47 -9 47 -5 0 -8 -19 -6 -41z"/>
<path d="M8326 3201 c-4 -7 -5 -15 -2 -18 9 -9 19 4 14 18 -4 11 -6 11 -12 0z"/>
<path d="M8636 3182 c-2 -4 -7 -24 -11 -45 -7 -38 1 -47 24 -24 11 10 15 9 19
-3 3 -10 9 -4 16 17 14 42 32 44 28 4 -3 -28 -1 -31 26 -31 29 0 62 26 62 49
0 28 -29 41 -94 41 -36 0 -67 -3 -70 -8z"/>
<path d="M8386 3165 c-3 -8 4 -15 17 -18 22 -4 22 -4 1 -6 -20 -1 -41 -28 -30
-38 8 -8 56 29 56 43 0 10 11 14 38 13 30 -2 32 -3 10 -6 -22 -3 -28 -10 -28
-29 0 -21 4 -25 23 -22 15 2 21 9 19 21 -2 9 4 20 13 23 14 6 14 8 -3 19 -24
18 -109 17 -116 0z m94 -39 c0 -3 -4 -8 -10 -11 -5 -3 -10 -1 -10 4 0 6 5 11
10 11 6 0 10 -2 10 -4z"/>
<path d="M8175 3159 c-4 -6 -4 -13 -1 -16 3 -3 1 -14 -5 -24 -8 -16 -7 -17 13
-10 12 4 25 20 29 34 6 22 4 27 -11 27 -10 0 -22 -5 -25 -11z"/>
<path d="M8233 3145 c0 -18 4 -21 26 -16 18 3 21 6 9 9 -9 2 -15 9 -12 16 3 7
-2 13 -9 13 -8 0 -14 -10 -14 -22z"/>
<path d="M8030 3120 c0 -11 5 -20 10 -20 6 0 10 9 10 20 0 11 -4 20 -10 20 -5
0 -10 -9 -10 -20z"/>
<path d="M8238 3103 c7 -3 16 -2 19 1 4 3 -2 6 -13 5 -11 0 -14 -3 -6 -6z"/>
<path d="M8572 3102 c-7 -5 -10 -16 -6 -25 9 -25 24 -20 24 8 0 28 0 28 -18
17z"/>
<path d="M4671 3084 c0 -11 3 -14 6 -6 3 7 2 16 -1 19 -3 4 -6 -2 -5 -13z"/>
<path d="M8131 3084 c0 -11 3 -14 6 -6 3 7 2 16 -1 19 -3 4 -6 -2 -5 -13z"/>
<path d="M8330 3078 c0 -19 2 -20 10 -8 13 19 13 30 0 30 -5 0 -10 -10 -10
-22z"/>
<path d="M4376 3063 c4 -51 21 -82 43 -76 27 7 34 41 11 61 -28 26 -49 42 -53
42 -2 0 -2 -12 -1 -27z"/>
<path d="M4511 3048 c-1 -18 28 -52 37 -43 3 3 -1 11 -10 18 -9 6 -18 19 -21
27 -4 12 -6 12 -6 -2z"/>
<path d="M4485 3030 c-3 -5 -1 -10 4 -10 6 0 11 5 11 10 0 6 -2 10 -4 10 -3 0
-8 -4 -11 -10z"/>
<path d="M8164 2971 c4 -5 0 -12 -6 -14 -8 -4 -9 -6 -2 -6 6 -1 17 6 24 14 10
12 9 15 -4 15 -10 0 -15 -4 -12 -9z"/>
<path d="M5800 2915 c0 -8 4 -15 10 -15 5 0 7 7 4 15 -4 8 -8 15 -10 15 -2 0
-4 -7 -4 -15z"/>
<path d="M4450 2825 c0 -8 2 -15 4 -15 2 0 6 7 10 15 3 8 1 15 -4 15 -6 0 -10
-7 -10 -15z"/>
<path d="M4090 2820 c0 -6 7 -13 15 -17 24 -9 27 1 5 15 -13 8 -20 8 -20 2z"/>
<path d="M4183 2794 c-3 -8 -1 -20 6 -27 8 -8 17 -5 34 11 20 19 28 21 50 13
22 -9 27 -8 27 4 0 22 -108 21 -117 -1z"/>
<path d="M6760 2530 c8 -5 20 -10 25 -10 6 0 3 5 -5 10 -8 5 -19 10 -25 10 -5
0 -3 -5 5 -10z"/>
<path d="M810 2493 c-29 -37 -63 -126 -76 -202 -14 -79 -10 -269 6 -357 17
-95 23 -112 47 -159 32 -61 40 -65 129 -65 80 0 83 1 109 32 30 36 37 51 55
118 27 104 17 94 105 102 94 9 181 31 177 47 -1 6 2 11 7 11 5 0 11 14 15 30
6 33 44 55 77 45 15 -5 17 -10 9 -25 -6 -10 -10 -21 -10 -24 0 -3 31 -6 70 -6
63 0 71 2 86 25 15 23 22 25 90 25 75 0 228 28 297 55 20 8 53 15 71 15 19 0
41 3 50 6 22 8 21 70 0 82 -14 8 -14 10 -2 15 11 4 15 24 15 77 1 64 -1 72
-20 80 -12 5 -18 9 -13 9 5 1 3 7 -3 15 -9 11 -6 15 14 20 76 19 -26 43 -118
28 -123 -21 -203 -33 -247 -37 -137 -14 -449 -64 -468 -76 -19 -12 -51 -73
-65 -124 -42 -156 -75 -230 -93 -212 -4 3 -6 46 -5 94 1 90 -16 205 -43 280
-33 93 -64 113 -172 113 -60 0 -64 -1 -94 -37z m930 -163 c-20 -13 -40 -13
-40 0 0 6 12 10 28 10 21 0 24 -2 12 -10z m-237 -77 c-7 -2 -21 -2 -30 0 -10
3 -4 5 12 5 17 0 24 -2 18 -5z"/>
<path d="M6788 2443 c7 -3 16 -2 19 1 4 3 -2 6 -13 5 -11 0 -14 -3 -6 -6z"/>
<path d="M6775 2380 c-3 -5 -1 -10 4 -10 6 0 11 5 11 10 0 6 -2 10 -4 10 -3 0
-8 -4 -11 -10z"/>
<path d="M303 2253 c-23 -2 -47 -11 -53 -19 -9 -10 -34 -14 -85 -14 -40 0 -93
-3 -119 -6 l-46 -7 0 -169 0 -170 67 6 c77 7 74 2 -9 -14 l-58 -11 0 -83 0
-83 120 27 c65 15 126 32 134 39 7 6 51 16 97 21 46 6 107 16 134 23 46 12 50
16 52 45 1 26 -3 32 -20 33 -20 1 -20 2 3 9 22 6 23 8 8 15 -10 4 -15 12 -11
19 4 6 8 13 9 16 0 3 4 14 9 24 6 14 3 23 -10 32 -17 13 -17 14 -2 14 15 0 17
13 17 105 0 77 -3 105 -12 105 -8 0 -6 5 4 11 10 5 15 16 12 24 -5 12 -26 15
-103 13 -53 -1 -115 -3 -138 -5z m177 -47 c0 -2 -7 -6 -15 -10 -8 -3 -15 -1
-15 4 0 6 7 10 15 10 8 0 15 -2 15 -4z m-400 -166 c-14 -4 -36 -8 -50 -8 -23
-1 -23 0 -5 8 11 5 34 8 50 8 29 0 29 0 5 -8z"/>
<path d="M1180 1780 c0 -5 13 -10 29 -10 17 0 33 5 36 10 4 6 -8 10 -29 10
-20 0 -36 -4 -36 -10z"/>
</g>
</svg>
